G04 #@! TF.GenerationSoftware,KiCad,Pcbnew,5.1.6-c6e7f7d~87~ubuntu20.04.1*
G04 #@! TF.CreationDate,2020-07-30T22:17:07+05:30*
G04 #@! TF.ProjectId,tiny_blinky,74696e79-5f62-46c6-996e-6b792e6b6963,rev1*
G04 #@! TF.SameCoordinates,Original*
G04 #@! TF.FileFunction,Soldermask,Bot*
G04 #@! TF.FilePolarity,Negative*
%FSLAX46Y46*%
G04 Gerber Fmt 4.6, Leading zero omitted, Abs format (unit mm)*
G04 Created by KiCad (PCBNEW 5.1.6-c6e7f7d~87~ubuntu20.04.1) date 2020-07-30 22:17:07*
%MOMM*%
%LPD*%
G01*
G04 APERTURE LIST*
%ADD10C,2.100000*%
%ADD11R,1.700000X1.700000*%
%ADD12C,1.700000*%
%ADD13C,6.500000*%
%ADD14C,0.900000*%
%ADD15R,1.800000X1.800000*%
%ADD16O,1.800000X1.800000*%
%ADD17O,1.700000X1.700000*%
G04 APERTURE END LIST*
D10*
X70612000Y-40536000D03*
X66112000Y-40536000D03*
X70612000Y-34036000D03*
X66112000Y-34036000D03*
D11*
X72136000Y-62484000D03*
D12*
X72136000Y-58984000D03*
X87884000Y-56896000D03*
X87884000Y-54396000D03*
D13*
X92456000Y-67564000D03*
D14*
X94856000Y-67564000D03*
X94153056Y-69261056D03*
X92456000Y-69964000D03*
X90758944Y-69261056D03*
X90056000Y-67564000D03*
X90758944Y-65866944D03*
X92456000Y-65164000D03*
X94153056Y-65866944D03*
X94153056Y-32338944D03*
X92456000Y-31636000D03*
X90758944Y-32338944D03*
X90056000Y-34036000D03*
X90758944Y-35733056D03*
X92456000Y-36436000D03*
X94153056Y-35733056D03*
X94856000Y-34036000D03*
D13*
X92456000Y-34036000D03*
X44196000Y-34036000D03*
D14*
X46596000Y-34036000D03*
X45893056Y-35733056D03*
X44196000Y-36436000D03*
X42498944Y-35733056D03*
X41796000Y-34036000D03*
X42498944Y-32338944D03*
X44196000Y-31636000D03*
X45893056Y-32338944D03*
X45893056Y-65866944D03*
X44196000Y-65164000D03*
X42498944Y-65866944D03*
X41796000Y-67564000D03*
X42498944Y-69261056D03*
X44196000Y-69964000D03*
X45893056Y-69261056D03*
X46596000Y-67564000D03*
D13*
X44196000Y-67564000D03*
D15*
X109220000Y-48260000D03*
D16*
X109220000Y-50800000D03*
X109220000Y-53340000D03*
D15*
X74168000Y-39116000D03*
D16*
X74168000Y-36576000D03*
X76708000Y-39116000D03*
X76708000Y-36576000D03*
X79248000Y-39116000D03*
X79248000Y-36576000D03*
X65024000Y-60960000D03*
D15*
X65024000Y-63500000D03*
X87884000Y-63500000D03*
D16*
X87884000Y-60960000D03*
D12*
X84328000Y-44704000D03*
D17*
X84328000Y-52324000D03*
X67564000Y-52324000D03*
D12*
X67564000Y-44704000D03*
D11*
X72136000Y-52324000D03*
D17*
X79756000Y-44704000D03*
X74676000Y-52324000D03*
X77216000Y-44704000D03*
X77216000Y-52324000D03*
X74676000Y-44704000D03*
X79756000Y-52324000D03*
X72136000Y-44704000D03*
M02*
