M48
; DRILL file {KiCad 5.1.6-c6e7f7d~87~ubuntu20.04.1} date Thu Jul 30 22:17:13 2020
; FORMAT={-:-/ absolute / inch / decimal}
; #@! TF.CreationDate,2020-07-30T22:17:13+05:30
; #@! TF.GenerationSoftware,Kicad,Pcbnew,5.1.6-c6e7f7d~87~ubuntu20.04.1
FMAT,2
INCH
T1C0.0160
T2C0.0197
T3C0.0315
T4C0.0394
T5C0.0433
T6C0.1260
%
G90
G05
T1
X4.15Y-2.385
X4.155Y-1.745
X4.155Y-2.065
T2
X1.6455Y-2.66
X1.6732Y-2.5932
X1.6732Y-2.7268
X1.74Y-2.5655
X1.74Y-2.7545
X1.8068Y-2.5932
X1.8068Y-2.7268
X1.8345Y-2.66
X3.5455Y-1.34
X3.5732Y-1.2732
X3.5732Y-1.4068
X3.64Y-1.2455
X3.64Y-1.4345
X3.7068Y-1.2732
X3.7068Y-1.4068
X3.7345Y-1.34
X1.6455Y-1.34
X1.6732Y-1.2732
X1.6732Y-1.4068
X1.74Y-1.2455
X1.74Y-1.4345
X1.8068Y-1.2732
X1.8068Y-1.4068
X1.8345Y-1.34
X3.5455Y-2.66
X3.5732Y-2.5932
X3.5732Y-2.7268
X3.64Y-2.5655
X3.64Y-2.7545
X3.7068Y-2.5932
X3.7068Y-2.7268
X3.7345Y-2.66
T3
X2.84Y-2.3222
X2.84Y-2.46
X2.66Y-1.76
X2.66Y-2.06
X2.84Y-1.76
X2.84Y-2.06
X2.94Y-1.76
X2.94Y-2.06
X3.04Y-1.76
X3.04Y-2.06
X3.14Y-1.76
X3.14Y-2.06
X3.32Y-1.76
X3.32Y-2.06
X3.46Y-2.1416
X3.46Y-2.24
T4
X2.92Y-1.44
X2.92Y-1.54
X3.02Y-1.44
X3.02Y-1.54
X3.12Y-1.44
X3.12Y-1.54
X3.46Y-2.4
X3.46Y-2.5
X4.3Y-1.9
X4.3Y-2.0
X4.3Y-2.1
X2.56Y-2.4
X2.56Y-2.5
T5
X2.6028Y-1.34
X2.6028Y-1.5959
X2.78Y-1.34
X2.78Y-1.5959
T6
X1.74Y-2.66
X3.64Y-1.34
X1.74Y-1.34
X3.64Y-2.66
T0
M30
