G04 #@! TF.GenerationSoftware,KiCad,Pcbnew,5.1.6-c6e7f7d~87~ubuntu20.04.1*
G04 #@! TF.CreationDate,2020-07-30T22:17:07+05:30*
G04 #@! TF.ProjectId,tiny_blinky,74696e79-5f62-46c6-996e-6b792e6b6963,rev1*
G04 #@! TF.SameCoordinates,Original*
G04 #@! TF.FileFunction,Copper,L1,Top*
G04 #@! TF.FilePolarity,Positive*
%FSLAX46Y46*%
G04 Gerber Fmt 4.6, Leading zero omitted, Abs format (unit mm)*
G04 Created by KiCad (PCBNEW 5.1.6-c6e7f7d~87~ubuntu20.04.1) date 2020-07-30 22:17:07*
%MOMM*%
%LPD*%
G01*
G04 APERTURE LIST*
G04 #@! TA.AperFunction,SMDPad,CuDef*
%ADD10R,5.100000X5.100000*%
G04 #@! TD*
G04 #@! TA.AperFunction,SMDPad,CuDef*
%ADD11C,15.240000*%
G04 #@! TD*
G04 #@! TA.AperFunction,ComponentPad*
%ADD12C,2.000000*%
G04 #@! TD*
G04 #@! TA.AperFunction,ComponentPad*
%ADD13R,1.600000X1.600000*%
G04 #@! TD*
G04 #@! TA.AperFunction,ComponentPad*
%ADD14C,1.600000*%
G04 #@! TD*
G04 #@! TA.AperFunction,SMDPad,CuDef*
%ADD15R,1.500000X1.000000*%
G04 #@! TD*
G04 #@! TA.AperFunction,ComponentPad*
%ADD16C,6.400000*%
G04 #@! TD*
G04 #@! TA.AperFunction,ComponentPad*
%ADD17C,0.800000*%
G04 #@! TD*
G04 #@! TA.AperFunction,ComponentPad*
%ADD18R,1.700000X1.700000*%
G04 #@! TD*
G04 #@! TA.AperFunction,ComponentPad*
%ADD19O,1.700000X1.700000*%
G04 #@! TD*
G04 #@! TA.AperFunction,ComponentPad*
%ADD20O,1.600000X1.600000*%
G04 #@! TD*
G04 #@! TA.AperFunction,SMDPad,CuDef*
%ADD21R,3.800000X2.000000*%
G04 #@! TD*
G04 #@! TA.AperFunction,SMDPad,CuDef*
%ADD22R,1.500000X2.000000*%
G04 #@! TD*
G04 #@! TA.AperFunction,ViaPad*
%ADD23C,0.812800*%
G04 #@! TD*
G04 #@! TA.AperFunction,Conductor*
%ADD24C,0.508000*%
G04 #@! TD*
G04 #@! TA.AperFunction,Conductor*
%ADD25C,0.254000*%
G04 #@! TD*
G04 APERTURE END LIST*
D10*
X52832000Y-36334700D03*
X52832000Y-65265300D03*
D11*
X52832000Y-50800000D03*
D12*
X70612000Y-40536000D03*
X66112000Y-40536000D03*
X70612000Y-34036000D03*
X66112000Y-34036000D03*
D13*
X72136000Y-62484000D03*
D14*
X72136000Y-58984000D03*
X87884000Y-56896000D03*
X87884000Y-54396000D03*
D15*
X104050000Y-44272000D03*
X104050000Y-41072000D03*
X99150000Y-44272000D03*
X99150000Y-41072000D03*
X104050000Y-52400000D03*
X104050000Y-49200000D03*
X99150000Y-52400000D03*
X99150000Y-49200000D03*
X99150000Y-57328000D03*
X99150000Y-60528000D03*
X104050000Y-57328000D03*
X104050000Y-60528000D03*
D16*
X92456000Y-67564000D03*
D17*
X94856000Y-67564000D03*
X94153056Y-69261056D03*
X92456000Y-69964000D03*
X90758944Y-69261056D03*
X90056000Y-67564000D03*
X90758944Y-65866944D03*
X92456000Y-65164000D03*
X94153056Y-65866944D03*
X94153056Y-32338944D03*
X92456000Y-31636000D03*
X90758944Y-32338944D03*
X90056000Y-34036000D03*
X90758944Y-35733056D03*
X92456000Y-36436000D03*
X94153056Y-35733056D03*
X94856000Y-34036000D03*
D16*
X92456000Y-34036000D03*
X44196000Y-34036000D03*
D17*
X46596000Y-34036000D03*
X45893056Y-35733056D03*
X44196000Y-36436000D03*
X42498944Y-35733056D03*
X41796000Y-34036000D03*
X42498944Y-32338944D03*
X44196000Y-31636000D03*
X45893056Y-32338944D03*
X45893056Y-65866944D03*
X44196000Y-65164000D03*
X42498944Y-65866944D03*
X41796000Y-67564000D03*
X42498944Y-69261056D03*
X44196000Y-69964000D03*
X45893056Y-69261056D03*
X46596000Y-67564000D03*
D16*
X44196000Y-67564000D03*
D18*
X109220000Y-48260000D03*
D19*
X109220000Y-50800000D03*
X109220000Y-53340000D03*
D18*
X74168000Y-39116000D03*
D19*
X74168000Y-36576000D03*
X76708000Y-39116000D03*
X76708000Y-36576000D03*
X79248000Y-39116000D03*
X79248000Y-36576000D03*
X65024000Y-60960000D03*
D18*
X65024000Y-63500000D03*
X87884000Y-63500000D03*
D19*
X87884000Y-60960000D03*
D14*
X84328000Y-44704000D03*
D20*
X84328000Y-52324000D03*
X67564000Y-52324000D03*
D14*
X67564000Y-44704000D03*
D13*
X72136000Y-52324000D03*
D20*
X79756000Y-44704000D03*
X74676000Y-52324000D03*
X77216000Y-44704000D03*
X77216000Y-52324000D03*
X74676000Y-44704000D03*
X79756000Y-52324000D03*
X72136000Y-44704000D03*
D21*
X81280000Y-64618000D03*
D22*
X81280000Y-58318000D03*
X78980000Y-58318000D03*
X83580000Y-58318000D03*
D23*
X105537000Y-44323000D03*
X105537000Y-52451000D03*
X105410000Y-60579000D03*
D24*
X105486000Y-44272000D02*
X105537000Y-44323000D01*
X104050000Y-44272000D02*
X105486000Y-44272000D01*
X105486000Y-52400000D02*
X105537000Y-52451000D01*
X104050000Y-52400000D02*
X105486000Y-52400000D01*
X105359000Y-60528000D02*
X105410000Y-60579000D01*
X104050000Y-60528000D02*
X105359000Y-60528000D01*
X83580000Y-58318000D02*
X86258000Y-58318000D01*
X87884000Y-59944000D02*
X87884000Y-60960000D01*
X86258000Y-58318000D02*
X87884000Y-59944000D01*
X44196000Y-59436000D02*
X44196000Y-67564000D01*
X52832000Y-50800000D02*
X44196000Y-59436000D01*
X44196000Y-42164000D02*
X52832000Y-50800000D01*
X44196000Y-34036000D02*
X44196000Y-42164000D01*
X65024000Y-63500000D02*
X68580000Y-63500000D01*
X69596000Y-62484000D02*
X72136000Y-62484000D01*
X68580000Y-63500000D02*
X69596000Y-62484000D01*
X61976000Y-63500000D02*
X65024000Y-63500000D01*
X78980000Y-58318000D02*
X78980000Y-56628000D01*
X78980000Y-56628000D02*
X78232000Y-55880000D01*
X78232000Y-55880000D02*
X70612000Y-55880000D01*
X69596000Y-56896000D02*
X69596000Y-62484000D01*
X70612000Y-55880000D02*
X69596000Y-56896000D01*
X61976000Y-63500000D02*
X57912000Y-63500000D01*
X56146700Y-65265300D02*
X52832000Y-65265300D01*
X57912000Y-63500000D02*
X56146700Y-65265300D01*
X61976000Y-59944000D02*
X61976000Y-63500000D01*
X65532000Y-56387998D02*
X61976000Y-59944000D01*
X65532000Y-45720000D02*
X65532000Y-56387998D01*
X61976000Y-40640000D02*
X61976000Y-42164000D01*
X61976000Y-42164000D02*
X65532000Y-45720000D01*
X57670700Y-36334700D02*
X61976000Y-40640000D01*
X52832000Y-36334700D02*
X57670700Y-36334700D01*
X81280000Y-64618000D02*
X81280000Y-58318000D01*
X87884000Y-63500000D02*
X85852000Y-63500000D01*
X84734000Y-64618000D02*
X81280000Y-64618000D01*
X85852000Y-63500000D02*
X84734000Y-64618000D01*
X87884000Y-56896000D02*
X86360000Y-56896000D01*
X86360000Y-56896000D02*
X85344000Y-55880000D01*
X85344000Y-55880000D02*
X81788000Y-55880000D01*
X81280000Y-56388000D02*
X81280000Y-58318000D01*
X81788000Y-55880000D02*
X81280000Y-56388000D01*
X99150000Y-41072000D02*
X97358000Y-41072000D01*
X97358000Y-41072000D02*
X96520000Y-41910000D01*
X97460000Y-57328000D02*
X99150000Y-57328000D01*
X96520000Y-56388000D02*
X97460000Y-57328000D01*
X96571000Y-49200000D02*
X96520000Y-49149000D01*
X99150000Y-49200000D02*
X96571000Y-49200000D01*
X96520000Y-41910000D02*
X96520000Y-49149000D01*
X87884000Y-56896000D02*
X90678000Y-56896000D01*
X92964000Y-54610000D02*
X96520000Y-54610000D01*
X90678000Y-56896000D02*
X92964000Y-54610000D01*
X96520000Y-54610000D02*
X96520000Y-56388000D01*
X96520000Y-49149000D02*
X96520000Y-54610000D01*
X99150000Y-49200000D02*
X100127000Y-49200000D01*
X100127000Y-49200000D02*
X101727000Y-50800000D01*
X101727000Y-50800000D02*
X105029000Y-50800000D01*
X107569000Y-48260000D02*
X109220000Y-48260000D01*
X105029000Y-50800000D02*
X107569000Y-48260000D01*
X74168000Y-36576000D02*
X74168000Y-35052000D01*
X74168000Y-35052000D02*
X74676000Y-34544000D01*
X80264000Y-34544000D02*
X82296000Y-36576000D01*
X82296000Y-36576000D02*
X82296000Y-46736000D01*
X84760000Y-49200000D02*
X96571000Y-49200000D01*
X82296000Y-46736000D02*
X84760000Y-49200000D01*
X81280000Y-64618000D02*
X81280000Y-62992000D01*
X74676000Y-34544000D02*
X80264000Y-34544000D01*
X72136000Y-44704000D02*
X72136000Y-43180000D01*
X70612000Y-41656000D02*
X70612000Y-40536000D01*
X72136000Y-43180000D02*
X70612000Y-41656000D01*
X70739000Y-36576000D02*
X70612000Y-36449000D01*
X74168000Y-36576000D02*
X70739000Y-36576000D01*
X70612000Y-36449000D02*
X70612000Y-34036000D01*
X70612000Y-40536000D02*
X70612000Y-36449000D01*
D25*
X99150000Y-44272000D02*
X99150000Y-45937000D01*
X99150000Y-45937000D02*
X100330000Y-47117000D01*
X100330000Y-47117000D02*
X103251000Y-47117000D01*
X104050000Y-47916000D02*
X104050000Y-49200000D01*
X103251000Y-47117000D02*
X104050000Y-47916000D01*
X91694000Y-44704000D02*
X84328000Y-44704000D01*
X96266000Y-40132000D02*
X91694000Y-44704000D01*
X101600000Y-40132000D02*
X96266000Y-40132000D01*
X102540000Y-41072000D02*
X101600000Y-40132000D01*
X104050000Y-41072000D02*
X102540000Y-41072000D01*
X99150000Y-52400000D02*
X99150000Y-54065000D01*
X99150000Y-54065000D02*
X99822000Y-54737000D01*
X99822000Y-54737000D02*
X103378000Y-54737000D01*
X104050000Y-55409000D02*
X104050000Y-57328000D01*
X103378000Y-54737000D02*
X104050000Y-55409000D01*
X99150000Y-60528000D02*
X100508000Y-60528000D01*
X100508000Y-60528000D02*
X102108000Y-58928000D01*
X102108000Y-58928000D02*
X105537000Y-58928000D01*
X105537000Y-58928000D02*
X106680000Y-57785000D01*
X106680000Y-57785000D02*
X106680000Y-51943000D01*
X107823000Y-50800000D02*
X109220000Y-50800000D01*
X106680000Y-51943000D02*
X107823000Y-50800000D01*
X77216000Y-52324000D02*
X77216000Y-50673000D01*
X77216000Y-50673000D02*
X77724000Y-50165000D01*
X77724000Y-50165000D02*
X83566000Y-50165000D01*
X84328000Y-50927000D02*
X84328000Y-52324000D01*
X83566000Y-50165000D02*
X84328000Y-50927000D01*
X74676000Y-52324000D02*
X74676000Y-53848000D01*
X69723000Y-49657000D02*
X67564000Y-47498000D01*
X67564000Y-47498000D02*
X67564000Y-44704000D01*
X69723000Y-53721000D02*
X69723000Y-49657000D01*
X70485000Y-54483000D02*
X69723000Y-53721000D01*
X74041000Y-54483000D02*
X70485000Y-54483000D01*
X74676000Y-53848000D02*
X74041000Y-54483000D01*
X67564000Y-44704000D02*
X67564000Y-42926000D01*
X66112000Y-41474000D02*
X66112000Y-40536000D01*
X67564000Y-42926000D02*
X66112000Y-41474000D01*
X66112000Y-40536000D02*
X66112000Y-34036000D01*
X72136000Y-52324000D02*
X72136000Y-48895000D01*
X72136000Y-48895000D02*
X73406000Y-47625000D01*
X73406000Y-47625000D02*
X80010000Y-47625000D01*
X80010000Y-47625000D02*
X81026000Y-46609000D01*
X81026000Y-46609000D02*
X81026000Y-42799000D01*
X79248000Y-41021000D02*
X79248000Y-39116000D01*
X81026000Y-42799000D02*
X79248000Y-41021000D01*
X79756000Y-44704000D02*
X79756000Y-43180000D01*
X79756000Y-43180000D02*
X77978000Y-41402000D01*
X77978000Y-37846000D02*
X76708000Y-36576000D01*
X77978000Y-41402000D02*
X77978000Y-37846000D01*
X78486000Y-42926000D02*
X76708000Y-41148000D01*
X78486000Y-45974000D02*
X78486000Y-42926000D01*
X76708000Y-41148000D02*
X76708000Y-39116000D01*
X77724000Y-46736000D02*
X78486000Y-45974000D01*
X75438000Y-46736000D02*
X77724000Y-46736000D01*
X74676000Y-45974000D02*
X75438000Y-46736000D01*
X74676000Y-44704000D02*
X74676000Y-45974000D01*
X77216000Y-44704000D02*
X77216000Y-43180000D01*
X74168000Y-40132000D02*
X74168000Y-39116000D01*
X77216000Y-43180000D02*
X74168000Y-40132000D01*
G36*
X85442325Y-60593040D02*
G01*
X85533951Y-60630993D01*
X85612632Y-60691368D01*
X85673007Y-60770049D01*
X85710960Y-60861675D01*
X85725000Y-60968321D01*
X85725000Y-70095679D01*
X85710960Y-70202325D01*
X85673007Y-70293951D01*
X85612632Y-70372632D01*
X85533951Y-70433007D01*
X85531071Y-70434200D01*
X57724929Y-70434200D01*
X57722049Y-70433007D01*
X57643368Y-70372632D01*
X57582993Y-70293951D01*
X57545040Y-70202325D01*
X57531000Y-70095679D01*
X57531000Y-66048321D01*
X57545040Y-65941675D01*
X57582993Y-65850049D01*
X57643368Y-65771368D01*
X57722049Y-65710993D01*
X57813675Y-65673040D01*
X57920321Y-65659000D01*
X73660000Y-65659000D01*
X73676577Y-65657913D01*
X73808057Y-65640603D01*
X73840080Y-65632023D01*
X73873934Y-65618000D01*
X78741928Y-65618000D01*
X78754188Y-65742482D01*
X78790498Y-65862180D01*
X78849463Y-65972494D01*
X78928815Y-66069185D01*
X79025506Y-66148537D01*
X79135820Y-66207502D01*
X79255518Y-66243812D01*
X79380000Y-66256072D01*
X80994250Y-66253000D01*
X81153000Y-66094250D01*
X81153000Y-64745000D01*
X81407000Y-64745000D01*
X81407000Y-66094250D01*
X81565750Y-66253000D01*
X83180000Y-66256072D01*
X83304482Y-66243812D01*
X83424180Y-66207502D01*
X83534494Y-66148537D01*
X83631185Y-66069185D01*
X83710537Y-65972494D01*
X83769502Y-65862180D01*
X83805812Y-65742482D01*
X83818072Y-65618000D01*
X83815000Y-64903750D01*
X83656250Y-64745000D01*
X81407000Y-64745000D01*
X81153000Y-64745000D01*
X78903750Y-64745000D01*
X78745000Y-64903750D01*
X78741928Y-65618000D01*
X73873934Y-65618000D01*
X73962600Y-65581274D01*
X73991313Y-65564697D01*
X74096523Y-65483966D01*
X74119966Y-65460523D01*
X74200697Y-65355313D01*
X74217274Y-65326600D01*
X74268023Y-65204080D01*
X74276603Y-65172057D01*
X74293913Y-65040577D01*
X74295000Y-65024000D01*
X74295000Y-63618000D01*
X78741928Y-63618000D01*
X78745000Y-64332250D01*
X78903750Y-64491000D01*
X81153000Y-64491000D01*
X81153000Y-63141750D01*
X81407000Y-63141750D01*
X81407000Y-64491000D01*
X83656250Y-64491000D01*
X83815000Y-64332250D01*
X83818072Y-63618000D01*
X83805812Y-63493518D01*
X83769502Y-63373820D01*
X83710537Y-63263506D01*
X83631185Y-63166815D01*
X83534494Y-63087463D01*
X83424180Y-63028498D01*
X83304482Y-62992188D01*
X83180000Y-62979928D01*
X81565750Y-62983000D01*
X81407000Y-63141750D01*
X81153000Y-63141750D01*
X80994250Y-62983000D01*
X79380000Y-62979928D01*
X79255518Y-62992188D01*
X79135820Y-63028498D01*
X79025506Y-63087463D01*
X78928815Y-63166815D01*
X78849463Y-63263506D01*
X78790498Y-63373820D01*
X78754188Y-63493518D01*
X78741928Y-63618000D01*
X74295000Y-63618000D01*
X74295000Y-60968321D01*
X74309040Y-60861675D01*
X74346993Y-60770049D01*
X74407368Y-60691368D01*
X74486049Y-60630993D01*
X74577675Y-60593040D01*
X74684321Y-60579000D01*
X85335679Y-60579000D01*
X85442325Y-60593040D01*
G37*
X85442325Y-60593040D02*
X85533951Y-60630993D01*
X85612632Y-60691368D01*
X85673007Y-60770049D01*
X85710960Y-60861675D01*
X85725000Y-60968321D01*
X85725000Y-70095679D01*
X85710960Y-70202325D01*
X85673007Y-70293951D01*
X85612632Y-70372632D01*
X85533951Y-70433007D01*
X85531071Y-70434200D01*
X57724929Y-70434200D01*
X57722049Y-70433007D01*
X57643368Y-70372632D01*
X57582993Y-70293951D01*
X57545040Y-70202325D01*
X57531000Y-70095679D01*
X57531000Y-66048321D01*
X57545040Y-65941675D01*
X57582993Y-65850049D01*
X57643368Y-65771368D01*
X57722049Y-65710993D01*
X57813675Y-65673040D01*
X57920321Y-65659000D01*
X73660000Y-65659000D01*
X73676577Y-65657913D01*
X73808057Y-65640603D01*
X73840080Y-65632023D01*
X73873934Y-65618000D01*
X78741928Y-65618000D01*
X78754188Y-65742482D01*
X78790498Y-65862180D01*
X78849463Y-65972494D01*
X78928815Y-66069185D01*
X79025506Y-66148537D01*
X79135820Y-66207502D01*
X79255518Y-66243812D01*
X79380000Y-66256072D01*
X80994250Y-66253000D01*
X81153000Y-66094250D01*
X81153000Y-64745000D01*
X81407000Y-64745000D01*
X81407000Y-66094250D01*
X81565750Y-66253000D01*
X83180000Y-66256072D01*
X83304482Y-66243812D01*
X83424180Y-66207502D01*
X83534494Y-66148537D01*
X83631185Y-66069185D01*
X83710537Y-65972494D01*
X83769502Y-65862180D01*
X83805812Y-65742482D01*
X83818072Y-65618000D01*
X83815000Y-64903750D01*
X83656250Y-64745000D01*
X81407000Y-64745000D01*
X81153000Y-64745000D01*
X78903750Y-64745000D01*
X78745000Y-64903750D01*
X78741928Y-65618000D01*
X73873934Y-65618000D01*
X73962600Y-65581274D01*
X73991313Y-65564697D01*
X74096523Y-65483966D01*
X74119966Y-65460523D01*
X74200697Y-65355313D01*
X74217274Y-65326600D01*
X74268023Y-65204080D01*
X74276603Y-65172057D01*
X74293913Y-65040577D01*
X74295000Y-65024000D01*
X74295000Y-63618000D01*
X78741928Y-63618000D01*
X78745000Y-64332250D01*
X78903750Y-64491000D01*
X81153000Y-64491000D01*
X81153000Y-63141750D01*
X81407000Y-63141750D01*
X81407000Y-64491000D01*
X83656250Y-64491000D01*
X83815000Y-64332250D01*
X83818072Y-63618000D01*
X83805812Y-63493518D01*
X83769502Y-63373820D01*
X83710537Y-63263506D01*
X83631185Y-63166815D01*
X83534494Y-63087463D01*
X83424180Y-63028498D01*
X83304482Y-62992188D01*
X83180000Y-62979928D01*
X81565750Y-62983000D01*
X81407000Y-63141750D01*
X81153000Y-63141750D01*
X80994250Y-62983000D01*
X79380000Y-62979928D01*
X79255518Y-62992188D01*
X79135820Y-63028498D01*
X79025506Y-63087463D01*
X78928815Y-63166815D01*
X78849463Y-63263506D01*
X78790498Y-63373820D01*
X78754188Y-63493518D01*
X78741928Y-63618000D01*
X74295000Y-63618000D01*
X74295000Y-60968321D01*
X74309040Y-60861675D01*
X74346993Y-60770049D01*
X74407368Y-60691368D01*
X74486049Y-60630993D01*
X74577675Y-60593040D01*
X74684321Y-60579000D01*
X85335679Y-60579000D01*
X85442325Y-60593040D01*
M02*
