G04 #@! TF.GenerationSoftware,KiCad,Pcbnew,5.1.6-c6e7f7d~87~ubuntu20.04.1*
G04 #@! TF.CreationDate,2020-07-30T22:17:07+05:30*
G04 #@! TF.ProjectId,tiny_blinky,74696e79-5f62-46c6-996e-6b792e6b6963,rev1*
G04 #@! TF.SameCoordinates,Original*
G04 #@! TF.FileFunction,Legend,Top*
G04 #@! TF.FilePolarity,Positive*
%FSLAX46Y46*%
G04 Gerber Fmt 4.6, Leading zero omitted, Abs format (unit mm)*
G04 Created by KiCad (PCBNEW 5.1.6-c6e7f7d~87~ubuntu20.04.1) date 2020-07-30 22:17:07*
%MOMM*%
%LPD*%
G01*
G04 APERTURE LIST*
%ADD10C,0.120000*%
%ADD11C,0.150000*%
%ADD12C,0.203200*%
%ADD13R,5.200000X5.200000*%
%ADD14C,15.340000*%
%ADD15C,2.100000*%
%ADD16R,1.700000X1.700000*%
%ADD17C,1.700000*%
%ADD18R,1.600000X1.100000*%
%ADD19C,6.500000*%
%ADD20C,0.900000*%
%ADD21R,1.800000X1.800000*%
%ADD22O,1.800000X1.800000*%
%ADD23O,1.700000X1.700000*%
%ADD24R,3.900000X2.100000*%
%ADD25R,1.600000X2.100000*%
%ADD26C,0.254000*%
G04 APERTURE END LIST*
D10*
X50082000Y-33655000D02*
X50082000Y-40050000D01*
X55582000Y-33655000D02*
X50082000Y-33655000D01*
X55582000Y-40050000D02*
X55582000Y-33655000D01*
X55582000Y-67945000D02*
X55582000Y-61550000D01*
X50082000Y-67945000D02*
X55582000Y-67945000D01*
X50082000Y-61550000D02*
X50082000Y-67945000D01*
X43332000Y-40250000D02*
X43332000Y-46950000D01*
X43332000Y-61350000D02*
X43332000Y-54650000D01*
X63682000Y-46850000D02*
X58882000Y-40050000D01*
X63682000Y-54750000D02*
X63682000Y-46850000D01*
X58882000Y-61600000D02*
X63682000Y-54750000D01*
X43330536Y-54646385D02*
G75*
G02*
X43332000Y-46950000I9501464J3846385D01*
G01*
X67612000Y-40786000D02*
X69112000Y-40786000D01*
X71612000Y-39536000D02*
X71612000Y-35036000D01*
X69112000Y-33786000D02*
X67612000Y-33786000D01*
X65112000Y-35036000D02*
X65112000Y-39536000D01*
X69421000Y-64743698D02*
X70221000Y-64743698D01*
X69821000Y-65143698D02*
X69821000Y-64343698D01*
X71603000Y-56653000D02*
X72669000Y-56653000D01*
X71368000Y-56693000D02*
X72904000Y-56693000D01*
X71188000Y-56733000D02*
X73084000Y-56733000D01*
X71038000Y-56773000D02*
X73234000Y-56773000D01*
X70907000Y-56813000D02*
X73365000Y-56813000D01*
X70790000Y-56853000D02*
X73482000Y-56853000D01*
X70683000Y-56893000D02*
X73589000Y-56893000D01*
X70584000Y-56933000D02*
X73688000Y-56933000D01*
X70491000Y-56973000D02*
X73781000Y-56973000D01*
X70405000Y-57013000D02*
X73867000Y-57013000D01*
X70323000Y-57053000D02*
X73949000Y-57053000D01*
X70246000Y-57093000D02*
X74026000Y-57093000D01*
X70172000Y-57133000D02*
X74100000Y-57133000D01*
X70102000Y-57173000D02*
X74170000Y-57173000D01*
X70034000Y-57213000D02*
X74238000Y-57213000D01*
X69970000Y-57253000D02*
X74302000Y-57253000D01*
X69908000Y-57293000D02*
X74364000Y-57293000D01*
X69849000Y-57333000D02*
X74423000Y-57333000D01*
X69791000Y-57373000D02*
X74481000Y-57373000D01*
X69736000Y-57413000D02*
X74536000Y-57413000D01*
X69682000Y-57453000D02*
X74590000Y-57453000D01*
X69631000Y-57493000D02*
X74641000Y-57493000D01*
X69580000Y-57533000D02*
X74692000Y-57533000D01*
X69532000Y-57573000D02*
X74740000Y-57573000D01*
X69485000Y-57613000D02*
X74787000Y-57613000D01*
X69439000Y-57653000D02*
X74833000Y-57653000D01*
X69395000Y-57693000D02*
X74877000Y-57693000D01*
X69352000Y-57733000D02*
X74920000Y-57733000D01*
X69310000Y-57773000D02*
X74962000Y-57773000D01*
X69269000Y-57813000D02*
X75003000Y-57813000D01*
X69229000Y-57853000D02*
X75043000Y-57853000D01*
X69191000Y-57893000D02*
X75081000Y-57893000D01*
X69153000Y-57933000D02*
X75119000Y-57933000D01*
X73176000Y-57973000D02*
X75155000Y-57973000D01*
X69117000Y-57973000D02*
X71096000Y-57973000D01*
X73176000Y-58013000D02*
X75191000Y-58013000D01*
X69081000Y-58013000D02*
X71096000Y-58013000D01*
X73176000Y-58053000D02*
X75226000Y-58053000D01*
X69046000Y-58053000D02*
X71096000Y-58053000D01*
X73176000Y-58093000D02*
X75260000Y-58093000D01*
X69012000Y-58093000D02*
X71096000Y-58093000D01*
X73176000Y-58133000D02*
X75292000Y-58133000D01*
X68980000Y-58133000D02*
X71096000Y-58133000D01*
X73176000Y-58173000D02*
X75325000Y-58173000D01*
X68947000Y-58173000D02*
X71096000Y-58173000D01*
X73176000Y-58213000D02*
X75356000Y-58213000D01*
X68916000Y-58213000D02*
X71096000Y-58213000D01*
X73176000Y-58253000D02*
X75386000Y-58253000D01*
X68886000Y-58253000D02*
X71096000Y-58253000D01*
X73176000Y-58293000D02*
X75416000Y-58293000D01*
X68856000Y-58293000D02*
X71096000Y-58293000D01*
X73176000Y-58333000D02*
X75445000Y-58333000D01*
X68827000Y-58333000D02*
X71096000Y-58333000D01*
X73176000Y-58373000D02*
X75474000Y-58373000D01*
X68798000Y-58373000D02*
X71096000Y-58373000D01*
X73176000Y-58413000D02*
X75501000Y-58413000D01*
X68771000Y-58413000D02*
X71096000Y-58413000D01*
X73176000Y-58453000D02*
X75528000Y-58453000D01*
X68744000Y-58453000D02*
X71096000Y-58453000D01*
X73176000Y-58493000D02*
X75554000Y-58493000D01*
X68718000Y-58493000D02*
X71096000Y-58493000D01*
X73176000Y-58533000D02*
X75580000Y-58533000D01*
X68692000Y-58533000D02*
X71096000Y-58533000D01*
X73176000Y-58573000D02*
X75605000Y-58573000D01*
X68667000Y-58573000D02*
X71096000Y-58573000D01*
X73176000Y-58613000D02*
X75629000Y-58613000D01*
X68643000Y-58613000D02*
X71096000Y-58613000D01*
X73176000Y-58653000D02*
X75653000Y-58653000D01*
X68619000Y-58653000D02*
X71096000Y-58653000D01*
X73176000Y-58693000D02*
X75676000Y-58693000D01*
X68596000Y-58693000D02*
X71096000Y-58693000D01*
X73176000Y-58733000D02*
X75698000Y-58733000D01*
X68574000Y-58733000D02*
X71096000Y-58733000D01*
X73176000Y-58773000D02*
X75720000Y-58773000D01*
X68552000Y-58773000D02*
X71096000Y-58773000D01*
X73176000Y-58813000D02*
X75742000Y-58813000D01*
X68530000Y-58813000D02*
X71096000Y-58813000D01*
X73176000Y-58853000D02*
X75763000Y-58853000D01*
X68509000Y-58853000D02*
X71096000Y-58853000D01*
X73176000Y-58893000D02*
X75783000Y-58893000D01*
X68489000Y-58893000D02*
X71096000Y-58893000D01*
X73176000Y-58933000D02*
X75802000Y-58933000D01*
X68470000Y-58933000D02*
X71096000Y-58933000D01*
X73176000Y-58973000D02*
X75822000Y-58973000D01*
X68450000Y-58973000D02*
X71096000Y-58973000D01*
X73176000Y-59013000D02*
X75840000Y-59013000D01*
X68432000Y-59013000D02*
X71096000Y-59013000D01*
X73176000Y-59053000D02*
X75858000Y-59053000D01*
X68414000Y-59053000D02*
X71096000Y-59053000D01*
X73176000Y-59093000D02*
X75876000Y-59093000D01*
X68396000Y-59093000D02*
X71096000Y-59093000D01*
X73176000Y-59133000D02*
X75893000Y-59133000D01*
X68379000Y-59133000D02*
X71096000Y-59133000D01*
X73176000Y-59173000D02*
X75910000Y-59173000D01*
X68362000Y-59173000D02*
X71096000Y-59173000D01*
X73176000Y-59213000D02*
X75926000Y-59213000D01*
X68346000Y-59213000D02*
X71096000Y-59213000D01*
X73176000Y-59253000D02*
X75941000Y-59253000D01*
X68331000Y-59253000D02*
X71096000Y-59253000D01*
X73176000Y-59293000D02*
X75957000Y-59293000D01*
X68315000Y-59293000D02*
X71096000Y-59293000D01*
X73176000Y-59333000D02*
X75971000Y-59333000D01*
X68301000Y-59333000D02*
X71096000Y-59333000D01*
X73176000Y-59373000D02*
X75986000Y-59373000D01*
X68286000Y-59373000D02*
X71096000Y-59373000D01*
X73176000Y-59413000D02*
X75999000Y-59413000D01*
X68273000Y-59413000D02*
X71096000Y-59413000D01*
X73176000Y-59453000D02*
X76013000Y-59453000D01*
X68259000Y-59453000D02*
X71096000Y-59453000D01*
X73176000Y-59493000D02*
X76025000Y-59493000D01*
X68247000Y-59493000D02*
X71096000Y-59493000D01*
X73176000Y-59533000D02*
X76038000Y-59533000D01*
X68234000Y-59533000D02*
X71096000Y-59533000D01*
X73176000Y-59573000D02*
X76050000Y-59573000D01*
X68222000Y-59573000D02*
X71096000Y-59573000D01*
X73176000Y-59613000D02*
X76061000Y-59613000D01*
X68211000Y-59613000D02*
X71096000Y-59613000D01*
X73176000Y-59653000D02*
X76072000Y-59653000D01*
X68200000Y-59653000D02*
X71096000Y-59653000D01*
X73176000Y-59693000D02*
X76083000Y-59693000D01*
X68189000Y-59693000D02*
X71096000Y-59693000D01*
X73176000Y-59733000D02*
X76093000Y-59733000D01*
X68179000Y-59733000D02*
X71096000Y-59733000D01*
X73176000Y-59773000D02*
X76103000Y-59773000D01*
X68169000Y-59773000D02*
X71096000Y-59773000D01*
X73176000Y-59813000D02*
X76112000Y-59813000D01*
X68160000Y-59813000D02*
X71096000Y-59813000D01*
X73176000Y-59853000D02*
X76121000Y-59853000D01*
X68151000Y-59853000D02*
X71096000Y-59853000D01*
X73176000Y-59893000D02*
X76130000Y-59893000D01*
X68142000Y-59893000D02*
X71096000Y-59893000D01*
X73176000Y-59933000D02*
X76138000Y-59933000D01*
X68134000Y-59933000D02*
X71096000Y-59933000D01*
X73176000Y-59973000D02*
X76146000Y-59973000D01*
X68126000Y-59973000D02*
X71096000Y-59973000D01*
X73176000Y-60013000D02*
X76153000Y-60013000D01*
X68119000Y-60013000D02*
X71096000Y-60013000D01*
X68112000Y-60054000D02*
X76160000Y-60054000D01*
X68106000Y-60094000D02*
X76166000Y-60094000D01*
X68099000Y-60134000D02*
X76173000Y-60134000D01*
X68094000Y-60174000D02*
X76178000Y-60174000D01*
X68088000Y-60214000D02*
X76184000Y-60214000D01*
X68084000Y-60254000D02*
X76188000Y-60254000D01*
X68079000Y-60294000D02*
X76193000Y-60294000D01*
X68075000Y-60334000D02*
X76197000Y-60334000D01*
X68071000Y-60374000D02*
X76201000Y-60374000D01*
X68068000Y-60414000D02*
X76204000Y-60414000D01*
X68065000Y-60454000D02*
X76207000Y-60454000D01*
X68062000Y-60494000D02*
X76210000Y-60494000D01*
X68060000Y-60534000D02*
X76212000Y-60534000D01*
X68059000Y-60574000D02*
X76213000Y-60574000D01*
X68057000Y-60614000D02*
X76215000Y-60614000D01*
X68056000Y-60654000D02*
X76216000Y-60654000D01*
X68056000Y-60694000D02*
X76216000Y-60694000D01*
X68056000Y-60734000D02*
X76216000Y-60734000D01*
X76256000Y-60734000D02*
G75*
G03*
X76256000Y-60734000I-4120000J0D01*
G01*
X86514000Y-53026000D02*
X89254000Y-53026000D01*
X86514000Y-58266000D02*
X89254000Y-58266000D01*
X89254000Y-58266000D02*
X89254000Y-53026000D01*
X86514000Y-58266000D02*
X86514000Y-53026000D01*
X105250000Y-45422000D02*
X105250000Y-44272000D01*
X97950000Y-45422000D02*
X105250000Y-45422000D01*
X97950000Y-39922000D02*
X105250000Y-39922000D01*
X105250000Y-53550000D02*
X105250000Y-52400000D01*
X97950000Y-53550000D02*
X105250000Y-53550000D01*
X97950000Y-48050000D02*
X105250000Y-48050000D01*
X97950000Y-56178000D02*
X105250000Y-56178000D01*
X97950000Y-61678000D02*
X105250000Y-61678000D01*
X105250000Y-61678000D02*
X105250000Y-60528000D01*
X109220000Y-46930000D02*
X110550000Y-46930000D01*
X110550000Y-46930000D02*
X110550000Y-48260000D01*
X110550000Y-49530000D02*
X110550000Y-54670000D01*
X107890000Y-54670000D02*
X110550000Y-54670000D01*
X107890000Y-49530000D02*
X107890000Y-54670000D01*
X107890000Y-49530000D02*
X110550000Y-49530000D01*
X72838000Y-40446000D02*
X72838000Y-39116000D01*
X74168000Y-40446000D02*
X72838000Y-40446000D01*
X72838000Y-37846000D02*
X72838000Y-35246000D01*
X75438000Y-37846000D02*
X72838000Y-37846000D01*
X75438000Y-40446000D02*
X75438000Y-37846000D01*
X72838000Y-35246000D02*
X80578000Y-35246000D01*
X75438000Y-40446000D02*
X80578000Y-40446000D01*
X80578000Y-40446000D02*
X80578000Y-35246000D01*
X66354000Y-62230000D02*
X63694000Y-62230000D01*
X66354000Y-62230000D02*
X66354000Y-59630000D01*
X66354000Y-59630000D02*
X63694000Y-59630000D01*
X63694000Y-62230000D02*
X63694000Y-59630000D01*
X63694000Y-64830000D02*
X63694000Y-63500000D01*
X65024000Y-64830000D02*
X63694000Y-64830000D01*
X87884000Y-64830000D02*
X86554000Y-64830000D01*
X86554000Y-64830000D02*
X86554000Y-63500000D01*
X86554000Y-62230000D02*
X86554000Y-59630000D01*
X89214000Y-59630000D02*
X86554000Y-59630000D01*
X89214000Y-62230000D02*
X89214000Y-59630000D01*
X89214000Y-62230000D02*
X86554000Y-62230000D01*
X82958000Y-51784000D02*
X83288000Y-51784000D01*
X82958000Y-45244000D02*
X82958000Y-51784000D01*
X83288000Y-45244000D02*
X82958000Y-45244000D01*
X85698000Y-51784000D02*
X85368000Y-51784000D01*
X85698000Y-45244000D02*
X85698000Y-51784000D01*
X85368000Y-45244000D02*
X85698000Y-45244000D01*
X68604000Y-45244000D02*
X68934000Y-45244000D01*
X68934000Y-45244000D02*
X68934000Y-51784000D01*
X68934000Y-51784000D02*
X68604000Y-51784000D01*
X66524000Y-45244000D02*
X66194000Y-45244000D01*
X66194000Y-45244000D02*
X66194000Y-51784000D01*
X66194000Y-51784000D02*
X66524000Y-51784000D01*
X70806000Y-45864000D02*
X70806000Y-47514000D01*
X81086000Y-45864000D02*
X70806000Y-45864000D01*
X81086000Y-51164000D02*
X81086000Y-45864000D01*
X70806000Y-51164000D02*
X81086000Y-51164000D01*
X70806000Y-49514000D02*
X70806000Y-51164000D01*
X70806000Y-47514000D02*
G75*
G02*
X70806000Y-49514000I0J-1000000D01*
G01*
X84690000Y-57368000D02*
X84690000Y-63378000D01*
X77870000Y-59618000D02*
X77870000Y-63378000D01*
X84690000Y-63378000D02*
X83430000Y-63378000D01*
X77870000Y-63378000D02*
X79130000Y-63378000D01*
D11*
X49204571Y-63777714D02*
X49252190Y-63634857D01*
X49299809Y-63587238D01*
X49395047Y-63539619D01*
X49537904Y-63539619D01*
X49633142Y-63587238D01*
X49680761Y-63634857D01*
X49728380Y-63730095D01*
X49728380Y-64111047D01*
X48728380Y-64111047D01*
X48728380Y-63777714D01*
X48776000Y-63682476D01*
X48823619Y-63634857D01*
X48918857Y-63587238D01*
X49014095Y-63587238D01*
X49109333Y-63634857D01*
X49156952Y-63682476D01*
X49204571Y-63777714D01*
X49204571Y-64111047D01*
X48728380Y-63253904D02*
X48728380Y-62682476D01*
X49728380Y-62968190D02*
X48728380Y-62968190D01*
X49728380Y-61825333D02*
X49728380Y-62396761D01*
X49728380Y-62111047D02*
X48728380Y-62111047D01*
X48871238Y-62206285D01*
X48966476Y-62301523D01*
X49014095Y-62396761D01*
X67246666Y-37690761D02*
X67389523Y-37738380D01*
X67627619Y-37738380D01*
X67722857Y-37690761D01*
X67770476Y-37643142D01*
X67818095Y-37547904D01*
X67818095Y-37452666D01*
X67770476Y-37357428D01*
X67722857Y-37309809D01*
X67627619Y-37262190D01*
X67437142Y-37214571D01*
X67341904Y-37166952D01*
X67294285Y-37119333D01*
X67246666Y-37024095D01*
X67246666Y-36928857D01*
X67294285Y-36833619D01*
X67341904Y-36786000D01*
X67437142Y-36738380D01*
X67675238Y-36738380D01*
X67818095Y-36786000D01*
X68151428Y-36738380D02*
X68389523Y-37738380D01*
X68580000Y-37024095D01*
X68770476Y-37738380D01*
X69008571Y-36738380D01*
X69913333Y-37738380D02*
X69341904Y-37738380D01*
X69627619Y-37738380D02*
X69627619Y-36738380D01*
X69532380Y-36881238D01*
X69437142Y-36976476D01*
X69341904Y-37024095D01*
X72493142Y-66206666D02*
X72540761Y-66254285D01*
X72588380Y-66397142D01*
X72588380Y-66492380D01*
X72540761Y-66635238D01*
X72445523Y-66730476D01*
X72350285Y-66778095D01*
X72159809Y-66825714D01*
X72016952Y-66825714D01*
X71826476Y-66778095D01*
X71731238Y-66730476D01*
X71636000Y-66635238D01*
X71588380Y-66492380D01*
X71588380Y-66397142D01*
X71636000Y-66254285D01*
X71683619Y-66206666D01*
X72588380Y-65254285D02*
X72588380Y-65825714D01*
X72588380Y-65540000D02*
X71588380Y-65540000D01*
X71731238Y-65635238D01*
X71826476Y-65730476D01*
X71874095Y-65825714D01*
X88241142Y-51982666D02*
X88288761Y-52030285D01*
X88336380Y-52173142D01*
X88336380Y-52268380D01*
X88288761Y-52411238D01*
X88193523Y-52506476D01*
X88098285Y-52554095D01*
X87907809Y-52601714D01*
X87764952Y-52601714D01*
X87574476Y-52554095D01*
X87479238Y-52506476D01*
X87384000Y-52411238D01*
X87336380Y-52268380D01*
X87336380Y-52173142D01*
X87384000Y-52030285D01*
X87431619Y-51982666D01*
X87431619Y-51601714D02*
X87384000Y-51554095D01*
X87336380Y-51458857D01*
X87336380Y-51220761D01*
X87384000Y-51125523D01*
X87431619Y-51077904D01*
X87526857Y-51030285D01*
X87622095Y-51030285D01*
X87764952Y-51077904D01*
X88336380Y-51649333D01*
X88336380Y-51030285D01*
X97988380Y-42394095D02*
X96988380Y-42394095D01*
X96988380Y-42156000D01*
X97036000Y-42013142D01*
X97131238Y-41917904D01*
X97226476Y-41870285D01*
X97416952Y-41822666D01*
X97559809Y-41822666D01*
X97750285Y-41870285D01*
X97845523Y-41917904D01*
X97940761Y-42013142D01*
X97988380Y-42156000D01*
X97988380Y-42394095D01*
X97988380Y-40870285D02*
X97988380Y-41441714D01*
X97988380Y-41156000D02*
X96988380Y-41156000D01*
X97131238Y-41251238D01*
X97226476Y-41346476D01*
X97274095Y-41441714D01*
X97988380Y-39338285D02*
X97988380Y-39909714D01*
X97988380Y-39624000D02*
X96988380Y-39624000D01*
X97131238Y-39719238D01*
X97226476Y-39814476D01*
X97274095Y-39909714D01*
X97988380Y-50522095D02*
X96988380Y-50522095D01*
X96988380Y-50284000D01*
X97036000Y-50141142D01*
X97131238Y-50045904D01*
X97226476Y-49998285D01*
X97416952Y-49950666D01*
X97559809Y-49950666D01*
X97750285Y-49998285D01*
X97845523Y-50045904D01*
X97940761Y-50141142D01*
X97988380Y-50284000D01*
X97988380Y-50522095D01*
X97083619Y-49569714D02*
X97036000Y-49522095D01*
X96988380Y-49426857D01*
X96988380Y-49188761D01*
X97036000Y-49093523D01*
X97083619Y-49045904D01*
X97178857Y-48998285D01*
X97274095Y-48998285D01*
X97416952Y-49045904D01*
X97988380Y-49617333D01*
X97988380Y-48998285D01*
X97988380Y-47466285D02*
X97988380Y-48037714D01*
X97988380Y-47752000D02*
X96988380Y-47752000D01*
X97131238Y-47847238D01*
X97226476Y-47942476D01*
X97274095Y-48037714D01*
X97988380Y-58650095D02*
X96988380Y-58650095D01*
X96988380Y-58412000D01*
X97036000Y-58269142D01*
X97131238Y-58173904D01*
X97226476Y-58126285D01*
X97416952Y-58078666D01*
X97559809Y-58078666D01*
X97750285Y-58126285D01*
X97845523Y-58173904D01*
X97940761Y-58269142D01*
X97988380Y-58412000D01*
X97988380Y-58650095D01*
X96988380Y-57745333D02*
X96988380Y-57126285D01*
X97369333Y-57459619D01*
X97369333Y-57316761D01*
X97416952Y-57221523D01*
X97464571Y-57173904D01*
X97559809Y-57126285D01*
X97797904Y-57126285D01*
X97893142Y-57173904D01*
X97940761Y-57221523D01*
X97988380Y-57316761D01*
X97988380Y-57602476D01*
X97940761Y-57697714D01*
X97893142Y-57745333D01*
X97988380Y-55594285D02*
X97988380Y-56165714D01*
X97988380Y-55880000D02*
X96988380Y-55880000D01*
X97131238Y-55975238D01*
X97226476Y-56070476D01*
X97274095Y-56165714D01*
X108672380Y-46053333D02*
X109386666Y-46053333D01*
X109529523Y-46100952D01*
X109624761Y-46196190D01*
X109672380Y-46339047D01*
X109672380Y-46434285D01*
X109672380Y-45053333D02*
X109672380Y-45624761D01*
X109672380Y-45339047D02*
X108672380Y-45339047D01*
X108815238Y-45434285D01*
X108910476Y-45529523D01*
X108958095Y-45624761D01*
D12*
X106680000Y-55009142D02*
X106631619Y-55105904D01*
X106631619Y-55251047D01*
X106680000Y-55396190D01*
X106776761Y-55492952D01*
X106873523Y-55541333D01*
X107067047Y-55589714D01*
X107212190Y-55589714D01*
X107405714Y-55541333D01*
X107502476Y-55492952D01*
X107599238Y-55396190D01*
X107647619Y-55251047D01*
X107647619Y-55154285D01*
X107599238Y-55009142D01*
X107550857Y-54960761D01*
X107212190Y-54960761D01*
X107212190Y-55154285D01*
X107647619Y-54525333D02*
X106631619Y-54525333D01*
X107647619Y-53944761D01*
X106631619Y-53944761D01*
X107647619Y-53460952D02*
X106631619Y-53460952D01*
X106631619Y-53219047D01*
X106680000Y-53073904D01*
X106776761Y-52977142D01*
X106873523Y-52928761D01*
X107067047Y-52880380D01*
X107212190Y-52880380D01*
X107405714Y-52928761D01*
X107502476Y-52977142D01*
X107599238Y-53073904D01*
X107647619Y-53219047D01*
X107647619Y-53460952D01*
X107986285Y-52203047D02*
X106534857Y-52203047D01*
X107647619Y-51477333D02*
X106631619Y-51477333D01*
X106631619Y-51235428D01*
X106680000Y-51090285D01*
X106776761Y-50993523D01*
X106873523Y-50945142D01*
X107067047Y-50896761D01*
X107212190Y-50896761D01*
X107405714Y-50945142D01*
X107502476Y-50993523D01*
X107599238Y-51090285D01*
X107647619Y-51235428D01*
X107647619Y-51477333D01*
X106631619Y-50267809D02*
X106631619Y-50074285D01*
X106680000Y-49977523D01*
X106776761Y-49880761D01*
X106970285Y-49832380D01*
X107308952Y-49832380D01*
X107502476Y-49880761D01*
X107599238Y-49977523D01*
X107647619Y-50074285D01*
X107647619Y-50267809D01*
X107599238Y-50364571D01*
X107502476Y-50461333D01*
X107308952Y-50509714D01*
X106970285Y-50509714D01*
X106776761Y-50461333D01*
X106680000Y-50364571D01*
X106631619Y-50267809D01*
X107986285Y-49155047D02*
X106534857Y-49155047D01*
X106631619Y-47945523D02*
X106631619Y-48429333D01*
X107115428Y-48477714D01*
X107067047Y-48429333D01*
X107018666Y-48332571D01*
X107018666Y-48090666D01*
X107067047Y-47993904D01*
X107115428Y-47945523D01*
X107212190Y-47897142D01*
X107454095Y-47897142D01*
X107550857Y-47945523D01*
X107599238Y-47993904D01*
X107647619Y-48090666D01*
X107647619Y-48332571D01*
X107599238Y-48429333D01*
X107550857Y-48477714D01*
X106631619Y-47606857D02*
X107647619Y-47268190D01*
X106631619Y-46929523D01*
D11*
X73620380Y-41989333D02*
X74334666Y-41989333D01*
X74477523Y-42036952D01*
X74572761Y-42132190D01*
X74620380Y-42275047D01*
X74620380Y-42370285D01*
X73715619Y-41560761D02*
X73668000Y-41513142D01*
X73620380Y-41417904D01*
X73620380Y-41179809D01*
X73668000Y-41084571D01*
X73715619Y-41036952D01*
X73810857Y-40989333D01*
X73906095Y-40989333D01*
X74048952Y-41036952D01*
X74620380Y-41608380D01*
X74620380Y-40989333D01*
D12*
X73805142Y-33987619D02*
X73321333Y-33987619D01*
X73272952Y-34471428D01*
X73321333Y-34423047D01*
X73418095Y-34374666D01*
X73660000Y-34374666D01*
X73756761Y-34423047D01*
X73805142Y-34471428D01*
X73853523Y-34568190D01*
X73853523Y-34810095D01*
X73805142Y-34906857D01*
X73756761Y-34955238D01*
X73660000Y-35003619D01*
X73418095Y-35003619D01*
X73321333Y-34955238D01*
X73272952Y-34906857D01*
X74143809Y-33987619D02*
X74482476Y-35003619D01*
X74821142Y-33987619D01*
X78014285Y-34036000D02*
X77917523Y-33987619D01*
X77772380Y-33987619D01*
X77627238Y-34036000D01*
X77530476Y-34132761D01*
X77482095Y-34229523D01*
X77433714Y-34423047D01*
X77433714Y-34568190D01*
X77482095Y-34761714D01*
X77530476Y-34858476D01*
X77627238Y-34955238D01*
X77772380Y-35003619D01*
X77869142Y-35003619D01*
X78014285Y-34955238D01*
X78062666Y-34906857D01*
X78062666Y-34568190D01*
X77869142Y-34568190D01*
X78498095Y-35003619D02*
X78498095Y-33987619D01*
X79078666Y-35003619D01*
X79078666Y-33987619D01*
X79562476Y-35003619D02*
X79562476Y-33987619D01*
X79804380Y-33987619D01*
X79949523Y-34036000D01*
X80046285Y-34132761D01*
X80094666Y-34229523D01*
X80143047Y-34423047D01*
X80143047Y-34568190D01*
X80094666Y-34761714D01*
X80046285Y-34858476D01*
X79949523Y-34955238D01*
X79804380Y-35003619D01*
X79562476Y-35003619D01*
D11*
X64476380Y-66603333D02*
X65190666Y-66603333D01*
X65333523Y-66650952D01*
X65428761Y-66746190D01*
X65476380Y-66889047D01*
X65476380Y-66984285D01*
X64476380Y-66222380D02*
X64476380Y-65603333D01*
X64857333Y-65936666D01*
X64857333Y-65793809D01*
X64904952Y-65698571D01*
X64952571Y-65650952D01*
X65047809Y-65603333D01*
X65285904Y-65603333D01*
X65381142Y-65650952D01*
X65428761Y-65698571D01*
X65476380Y-65793809D01*
X65476380Y-66079523D01*
X65428761Y-66174761D01*
X65381142Y-66222380D01*
D12*
X67128571Y-63983809D02*
X67128571Y-63209714D01*
X67515619Y-63596761D02*
X66741523Y-63596761D01*
X67854285Y-62484000D02*
X66402857Y-62484000D01*
X67128571Y-61758285D02*
X67128571Y-60984190D01*
D11*
X87336380Y-66603333D02*
X88050666Y-66603333D01*
X88193523Y-66650952D01*
X88288761Y-66746190D01*
X88336380Y-66889047D01*
X88336380Y-66984285D01*
X87669714Y-65698571D02*
X88336380Y-65698571D01*
X87288761Y-65936666D02*
X88003047Y-66174761D01*
X88003047Y-65555714D01*
D12*
X89988571Y-63983809D02*
X89988571Y-63209714D01*
X90375619Y-63596761D02*
X89601523Y-63596761D01*
X90714285Y-62484000D02*
X89262857Y-62484000D01*
X89988571Y-61758285D02*
X89988571Y-60984190D01*
D11*
X84780380Y-48680666D02*
X84304190Y-49014000D01*
X84780380Y-49252095D02*
X83780380Y-49252095D01*
X83780380Y-48871142D01*
X83828000Y-48775904D01*
X83875619Y-48728285D01*
X83970857Y-48680666D01*
X84113714Y-48680666D01*
X84208952Y-48728285D01*
X84256571Y-48775904D01*
X84304190Y-48871142D01*
X84304190Y-49252095D01*
X84780380Y-47728285D02*
X84780380Y-48299714D01*
X84780380Y-48014000D02*
X83780380Y-48014000D01*
X83923238Y-48109238D01*
X84018476Y-48204476D01*
X84066095Y-48299714D01*
X68016380Y-48680666D02*
X67540190Y-49014000D01*
X68016380Y-49252095D02*
X67016380Y-49252095D01*
X67016380Y-48871142D01*
X67064000Y-48775904D01*
X67111619Y-48728285D01*
X67206857Y-48680666D01*
X67349714Y-48680666D01*
X67444952Y-48728285D01*
X67492571Y-48775904D01*
X67540190Y-48871142D01*
X67540190Y-49252095D01*
X67111619Y-48299714D02*
X67064000Y-48252095D01*
X67016380Y-48156857D01*
X67016380Y-47918761D01*
X67064000Y-47823523D01*
X67111619Y-47775904D01*
X67206857Y-47728285D01*
X67302095Y-47728285D01*
X67444952Y-47775904D01*
X68016380Y-48347333D01*
X68016380Y-47728285D01*
X72096380Y-49021904D02*
X72905904Y-49021904D01*
X73001142Y-48974285D01*
X73048761Y-48926666D01*
X73096380Y-48831428D01*
X73096380Y-48640952D01*
X73048761Y-48545714D01*
X73001142Y-48498095D01*
X72905904Y-48450476D01*
X72096380Y-48450476D01*
X73096380Y-47450476D02*
X73096380Y-48021904D01*
X73096380Y-47736190D02*
X72096380Y-47736190D01*
X72239238Y-47831428D01*
X72334476Y-47926666D01*
X72382095Y-48021904D01*
X83780380Y-65277904D02*
X84589904Y-65277904D01*
X84685142Y-65230285D01*
X84732761Y-65182666D01*
X84780380Y-65087428D01*
X84780380Y-64896952D01*
X84732761Y-64801714D01*
X84685142Y-64754095D01*
X84589904Y-64706476D01*
X83780380Y-64706476D01*
X83875619Y-64277904D02*
X83828000Y-64230285D01*
X83780380Y-64135047D01*
X83780380Y-63896952D01*
X83828000Y-63801714D01*
X83875619Y-63754095D01*
X83970857Y-63706476D01*
X84066095Y-63706476D01*
X84208952Y-63754095D01*
X84780380Y-64325523D01*
X84780380Y-63706476D01*
%LPC*%
D13*
X52832000Y-36334700D03*
X52832000Y-65265300D03*
D14*
X52832000Y-50800000D03*
D15*
X70612000Y-40536000D03*
X66112000Y-40536000D03*
X70612000Y-34036000D03*
X66112000Y-34036000D03*
D16*
X72136000Y-62484000D03*
D17*
X72136000Y-58984000D03*
X87884000Y-56896000D03*
X87884000Y-54396000D03*
D18*
X104050000Y-44272000D03*
X104050000Y-41072000D03*
X99150000Y-44272000D03*
X99150000Y-41072000D03*
X104050000Y-52400000D03*
X104050000Y-49200000D03*
X99150000Y-52400000D03*
X99150000Y-49200000D03*
X99150000Y-57328000D03*
X99150000Y-60528000D03*
X104050000Y-57328000D03*
X104050000Y-60528000D03*
D19*
X92456000Y-67564000D03*
D20*
X94856000Y-67564000D03*
X94153056Y-69261056D03*
X92456000Y-69964000D03*
X90758944Y-69261056D03*
X90056000Y-67564000D03*
X90758944Y-65866944D03*
X92456000Y-65164000D03*
X94153056Y-65866944D03*
X94153056Y-32338944D03*
X92456000Y-31636000D03*
X90758944Y-32338944D03*
X90056000Y-34036000D03*
X90758944Y-35733056D03*
X92456000Y-36436000D03*
X94153056Y-35733056D03*
X94856000Y-34036000D03*
D19*
X92456000Y-34036000D03*
X44196000Y-34036000D03*
D20*
X46596000Y-34036000D03*
X45893056Y-35733056D03*
X44196000Y-36436000D03*
X42498944Y-35733056D03*
X41796000Y-34036000D03*
X42498944Y-32338944D03*
X44196000Y-31636000D03*
X45893056Y-32338944D03*
X45893056Y-65866944D03*
X44196000Y-65164000D03*
X42498944Y-65866944D03*
X41796000Y-67564000D03*
X42498944Y-69261056D03*
X44196000Y-69964000D03*
X45893056Y-69261056D03*
X46596000Y-67564000D03*
D19*
X44196000Y-67564000D03*
D21*
X109220000Y-48260000D03*
D22*
X109220000Y-50800000D03*
X109220000Y-53340000D03*
D21*
X74168000Y-39116000D03*
D22*
X74168000Y-36576000D03*
X76708000Y-39116000D03*
X76708000Y-36576000D03*
X79248000Y-39116000D03*
X79248000Y-36576000D03*
X65024000Y-60960000D03*
D21*
X65024000Y-63500000D03*
X87884000Y-63500000D03*
D22*
X87884000Y-60960000D03*
D17*
X84328000Y-44704000D03*
D23*
X84328000Y-52324000D03*
X67564000Y-52324000D03*
D17*
X67564000Y-44704000D03*
D16*
X72136000Y-52324000D03*
D23*
X79756000Y-44704000D03*
X74676000Y-52324000D03*
X77216000Y-44704000D03*
X77216000Y-52324000D03*
X74676000Y-44704000D03*
X79756000Y-52324000D03*
X72136000Y-44704000D03*
D24*
X81280000Y-64618000D03*
D25*
X81280000Y-58318000D03*
X78980000Y-58318000D03*
X83580000Y-58318000D03*
D26*
G36*
X85725000Y-70485000D02*
G01*
X57531000Y-70485000D01*
X57531000Y-65659000D01*
X74168000Y-65659000D01*
X74192776Y-65656560D01*
X74216601Y-65649333D01*
X74238557Y-65637597D01*
X74257803Y-65621803D01*
X74273597Y-65602557D01*
X74285333Y-65580601D01*
X74292560Y-65556776D01*
X74295000Y-65532000D01*
X74295000Y-60579000D01*
X85725000Y-60579000D01*
X85725000Y-70485000D01*
G37*
X85725000Y-70485000D02*
X57531000Y-70485000D01*
X57531000Y-65659000D01*
X74168000Y-65659000D01*
X74192776Y-65656560D01*
X74216601Y-65649333D01*
X74238557Y-65637597D01*
X74257803Y-65621803D01*
X74273597Y-65602557D01*
X74285333Y-65580601D01*
X74292560Y-65556776D01*
X74295000Y-65532000D01*
X74295000Y-60579000D01*
X85725000Y-60579000D01*
X85725000Y-70485000D01*
M02*
