G04 #@! TF.GenerationSoftware,KiCad,Pcbnew,5.1.6-c6e7f7d~87~ubuntu20.04.1*
G04 #@! TF.CreationDate,2020-07-30T22:17:07+05:30*
G04 #@! TF.ProjectId,tiny_blinky,74696e79-5f62-46c6-996e-6b792e6b6963,rev1*
G04 #@! TF.SameCoordinates,Original*
G04 #@! TF.FileFunction,Legend,Bot*
G04 #@! TF.FilePolarity,Positive*
%FSLAX46Y46*%
G04 Gerber Fmt 4.6, Leading zero omitted, Abs format (unit mm)*
G04 Created by KiCad (PCBNEW 5.1.6-c6e7f7d~87~ubuntu20.04.1) date 2020-07-30 22:17:07*
%MOMM*%
%LPD*%
G01*
G04 APERTURE LIST*
%ADD10C,0.010000*%
%ADD11C,2.100000*%
%ADD12R,1.700000X1.700000*%
%ADD13C,1.700000*%
%ADD14C,6.500000*%
%ADD15C,0.900000*%
%ADD16R,1.800000X1.800000*%
%ADD17O,1.800000X1.800000*%
%ADD18O,1.700000X1.700000*%
G04 APERTURE END LIST*
D10*
G36*
X44852980Y-41374793D02*
G01*
X44671513Y-41679688D01*
X44505887Y-41952192D01*
X44363222Y-42181056D01*
X44250638Y-42355030D01*
X44175253Y-42462865D01*
X44144735Y-42493912D01*
X44110556Y-42445624D01*
X44032985Y-42321237D01*
X43919216Y-42132762D01*
X43776441Y-41892213D01*
X43611852Y-41611601D01*
X43461425Y-41352718D01*
X42813832Y-40233600D01*
X41904716Y-40233600D01*
X41613505Y-40234853D01*
X41360948Y-40238335D01*
X41163122Y-40243627D01*
X41036102Y-40250308D01*
X40995600Y-40257286D01*
X41021879Y-40303837D01*
X41097010Y-40427288D01*
X41215436Y-40618737D01*
X41371598Y-40869284D01*
X41559940Y-41170025D01*
X41774903Y-41512059D01*
X42010930Y-41886483D01*
X42164000Y-42128764D01*
X43332400Y-43976556D01*
X43332400Y-46532800D01*
X44958000Y-46532800D01*
X44958218Y-45275500D01*
X44958435Y-44018200D01*
X46038532Y-42316400D01*
X46280826Y-41934513D01*
X46510133Y-41572850D01*
X46719792Y-41241935D01*
X46903143Y-40952290D01*
X47053525Y-40714439D01*
X47164276Y-40538907D01*
X47228736Y-40436217D01*
X47236258Y-40424100D01*
X47353887Y-40233600D01*
X45525507Y-40233600D01*
X44852980Y-41374793D01*
G37*
X44852980Y-41374793D02*
X44671513Y-41679688D01*
X44505887Y-41952192D01*
X44363222Y-42181056D01*
X44250638Y-42355030D01*
X44175253Y-42462865D01*
X44144735Y-42493912D01*
X44110556Y-42445624D01*
X44032985Y-42321237D01*
X43919216Y-42132762D01*
X43776441Y-41892213D01*
X43611852Y-41611601D01*
X43461425Y-41352718D01*
X42813832Y-40233600D01*
X41904716Y-40233600D01*
X41613505Y-40234853D01*
X41360948Y-40238335D01*
X41163122Y-40243627D01*
X41036102Y-40250308D01*
X40995600Y-40257286D01*
X41021879Y-40303837D01*
X41097010Y-40427288D01*
X41215436Y-40618737D01*
X41371598Y-40869284D01*
X41559940Y-41170025D01*
X41774903Y-41512059D01*
X42010930Y-41886483D01*
X42164000Y-42128764D01*
X43332400Y-43976556D01*
X43332400Y-46532800D01*
X44958000Y-46532800D01*
X44958218Y-45275500D01*
X44958435Y-44018200D01*
X46038532Y-42316400D01*
X46280826Y-41934513D01*
X46510133Y-41572850D01*
X46719792Y-41241935D01*
X46903143Y-40952290D01*
X47053525Y-40714439D01*
X47164276Y-40538907D01*
X47228736Y-40436217D01*
X47236258Y-40424100D01*
X47353887Y-40233600D01*
X45525507Y-40233600D01*
X44852980Y-41374793D01*
G36*
X47727311Y-43319700D02*
G01*
X47526168Y-43853893D01*
X47335401Y-44360709D01*
X47158062Y-44832032D01*
X46997201Y-45259743D01*
X46855870Y-45635726D01*
X46737119Y-45951864D01*
X46643998Y-46200039D01*
X46579560Y-46372135D01*
X46546854Y-46460034D01*
X46543505Y-46469300D01*
X46557826Y-46493237D01*
X46626587Y-46510742D01*
X46760540Y-46522605D01*
X46970435Y-46529619D01*
X47267022Y-46532575D01*
X47405668Y-46532800D01*
X48289405Y-46532800D01*
X48596765Y-45593000D01*
X51225236Y-45593000D01*
X51532596Y-46532800D01*
X52416333Y-46532800D01*
X52748743Y-46531193D01*
X52990352Y-46525846D01*
X53151916Y-46515964D01*
X53244191Y-46500754D01*
X53277934Y-46479424D01*
X53277559Y-46469300D01*
X53256230Y-46411876D01*
X53202229Y-46267460D01*
X53118603Y-46044173D01*
X53008396Y-45750138D01*
X52874655Y-45393477D01*
X52720426Y-44982312D01*
X52548754Y-44524766D01*
X52425374Y-44196000D01*
X50797486Y-44196000D01*
X49026388Y-44196000D01*
X49193874Y-43726100D01*
X49272021Y-43505391D01*
X49372183Y-43220371D01*
X49483245Y-42902774D01*
X49594095Y-42584335D01*
X49631446Y-42476649D01*
X49734721Y-42188666D01*
X49821215Y-41967885D01*
X49887180Y-41822980D01*
X49928868Y-41762626D01*
X49938757Y-41765449D01*
X49965633Y-41832057D01*
X50019807Y-41979798D01*
X50095927Y-42193592D01*
X50188644Y-42458360D01*
X50292608Y-42759021D01*
X50332462Y-42875200D01*
X50440760Y-43190720D01*
X50540974Y-43481093D01*
X50627395Y-43729904D01*
X50694314Y-43920735D01*
X50736022Y-44037169D01*
X50743215Y-44056300D01*
X50797486Y-44196000D01*
X52425374Y-44196000D01*
X52362685Y-44028959D01*
X52165266Y-43503016D01*
X52096446Y-43319700D01*
X50937845Y-40233600D01*
X48889544Y-40233600D01*
X47727311Y-43319700D01*
G37*
X47727311Y-43319700D02*
X47526168Y-43853893D01*
X47335401Y-44360709D01*
X47158062Y-44832032D01*
X46997201Y-45259743D01*
X46855870Y-45635726D01*
X46737119Y-45951864D01*
X46643998Y-46200039D01*
X46579560Y-46372135D01*
X46546854Y-46460034D01*
X46543505Y-46469300D01*
X46557826Y-46493237D01*
X46626587Y-46510742D01*
X46760540Y-46522605D01*
X46970435Y-46529619D01*
X47267022Y-46532575D01*
X47405668Y-46532800D01*
X48289405Y-46532800D01*
X48596765Y-45593000D01*
X51225236Y-45593000D01*
X51532596Y-46532800D01*
X52416333Y-46532800D01*
X52748743Y-46531193D01*
X52990352Y-46525846D01*
X53151916Y-46515964D01*
X53244191Y-46500754D01*
X53277934Y-46479424D01*
X53277559Y-46469300D01*
X53256230Y-46411876D01*
X53202229Y-46267460D01*
X53118603Y-46044173D01*
X53008396Y-45750138D01*
X52874655Y-45393477D01*
X52720426Y-44982312D01*
X52548754Y-44524766D01*
X52425374Y-44196000D01*
X50797486Y-44196000D01*
X49026388Y-44196000D01*
X49193874Y-43726100D01*
X49272021Y-43505391D01*
X49372183Y-43220371D01*
X49483245Y-42902774D01*
X49594095Y-42584335D01*
X49631446Y-42476649D01*
X49734721Y-42188666D01*
X49821215Y-41967885D01*
X49887180Y-41822980D01*
X49928868Y-41762626D01*
X49938757Y-41765449D01*
X49965633Y-41832057D01*
X50019807Y-41979798D01*
X50095927Y-42193592D01*
X50188644Y-42458360D01*
X50292608Y-42759021D01*
X50332462Y-42875200D01*
X50440760Y-43190720D01*
X50540974Y-43481093D01*
X50627395Y-43729904D01*
X50694314Y-43920735D01*
X50736022Y-44037169D01*
X50743215Y-44056300D01*
X50797486Y-44196000D01*
X52425374Y-44196000D01*
X52362685Y-44028959D01*
X52165266Y-43503016D01*
X52096446Y-43319700D01*
X50937845Y-40233600D01*
X48889544Y-40233600D01*
X47727311Y-43319700D01*
G36*
X57492900Y-40246145D02*
G01*
X56991455Y-40252965D01*
X56578195Y-40261155D01*
X56239708Y-40272687D01*
X55962581Y-40289533D01*
X55733401Y-40313667D01*
X55538756Y-40347062D01*
X55365233Y-40391689D01*
X55199420Y-40449522D01*
X55027903Y-40522533D01*
X54837270Y-40612696D01*
X54766751Y-40647103D01*
X54326710Y-40912794D01*
X53945667Y-41245349D01*
X53637927Y-41630688D01*
X53477851Y-41915646D01*
X53340178Y-42234285D01*
X53247615Y-42525839D01*
X53193091Y-42824906D01*
X53169536Y-43166084D01*
X53167546Y-43434000D01*
X53174593Y-43726319D01*
X53192968Y-43953270D01*
X53227709Y-44150887D01*
X53283858Y-44355206D01*
X53306091Y-44424600D01*
X53518897Y-44928304D01*
X53805334Y-45362477D01*
X54167999Y-45730107D01*
X54609492Y-46034183D01*
X54787800Y-46128457D01*
X54982288Y-46222504D01*
X55154776Y-46299173D01*
X55318577Y-46360394D01*
X55487004Y-46408094D01*
X55673368Y-46444201D01*
X55890981Y-46470644D01*
X56153156Y-46489350D01*
X56473203Y-46502248D01*
X56864435Y-46511266D01*
X57340165Y-46518331D01*
X57492900Y-46520254D01*
X59182000Y-46541116D01*
X59182000Y-45121473D01*
X57556400Y-45121473D01*
X56807100Y-45100549D01*
X56499046Y-45089976D01*
X56270750Y-45076115D01*
X56100374Y-45055993D01*
X55966077Y-45026640D01*
X55846018Y-44985083D01*
X55792941Y-44962548D01*
X55540631Y-44810256D01*
X55294127Y-44590793D01*
X55084239Y-44335468D01*
X54957772Y-44113935D01*
X54900851Y-43940721D01*
X54853315Y-43717062D01*
X54827508Y-43512285D01*
X54838562Y-43081273D01*
X54935858Y-42688300D01*
X55114236Y-42343165D01*
X55368533Y-42055666D01*
X55693589Y-41835605D01*
X55716707Y-41824034D01*
X55835149Y-41768829D01*
X55943171Y-41729421D01*
X56062114Y-41702591D01*
X56213315Y-41685119D01*
X56418115Y-41673786D01*
X56697853Y-41665371D01*
X56781700Y-41663353D01*
X57556400Y-41645143D01*
X57556400Y-45121473D01*
X59182000Y-45121473D01*
X59182000Y-40225283D01*
X57492900Y-40246145D01*
G37*
X57492900Y-40246145D02*
X56991455Y-40252965D01*
X56578195Y-40261155D01*
X56239708Y-40272687D01*
X55962581Y-40289533D01*
X55733401Y-40313667D01*
X55538756Y-40347062D01*
X55365233Y-40391689D01*
X55199420Y-40449522D01*
X55027903Y-40522533D01*
X54837270Y-40612696D01*
X54766751Y-40647103D01*
X54326710Y-40912794D01*
X53945667Y-41245349D01*
X53637927Y-41630688D01*
X53477851Y-41915646D01*
X53340178Y-42234285D01*
X53247615Y-42525839D01*
X53193091Y-42824906D01*
X53169536Y-43166084D01*
X53167546Y-43434000D01*
X53174593Y-43726319D01*
X53192968Y-43953270D01*
X53227709Y-44150887D01*
X53283858Y-44355206D01*
X53306091Y-44424600D01*
X53518897Y-44928304D01*
X53805334Y-45362477D01*
X54167999Y-45730107D01*
X54609492Y-46034183D01*
X54787800Y-46128457D01*
X54982288Y-46222504D01*
X55154776Y-46299173D01*
X55318577Y-46360394D01*
X55487004Y-46408094D01*
X55673368Y-46444201D01*
X55890981Y-46470644D01*
X56153156Y-46489350D01*
X56473203Y-46502248D01*
X56864435Y-46511266D01*
X57340165Y-46518331D01*
X57492900Y-46520254D01*
X59182000Y-46541116D01*
X59182000Y-45121473D01*
X57556400Y-45121473D01*
X56807100Y-45100549D01*
X56499046Y-45089976D01*
X56270750Y-45076115D01*
X56100374Y-45055993D01*
X55966077Y-45026640D01*
X55846018Y-44985083D01*
X55792941Y-44962548D01*
X55540631Y-44810256D01*
X55294127Y-44590793D01*
X55084239Y-44335468D01*
X54957772Y-44113935D01*
X54900851Y-43940721D01*
X54853315Y-43717062D01*
X54827508Y-43512285D01*
X54838562Y-43081273D01*
X54935858Y-42688300D01*
X55114236Y-42343165D01*
X55368533Y-42055666D01*
X55693589Y-41835605D01*
X55716707Y-41824034D01*
X55835149Y-41768829D01*
X55943171Y-41729421D01*
X56062114Y-41702591D01*
X56213315Y-41685119D01*
X56418115Y-41673786D01*
X56697853Y-41665371D01*
X56781700Y-41663353D01*
X57556400Y-41645143D01*
X57556400Y-45121473D01*
X59182000Y-45121473D01*
X59182000Y-40225283D01*
X57492900Y-40246145D01*
G36*
X70307200Y-42791134D02*
G01*
X69354700Y-41514477D01*
X68402200Y-40237819D01*
X67390045Y-40235709D01*
X66377890Y-40233600D01*
X66480395Y-40347900D01*
X66536338Y-40413216D01*
X66648752Y-40546906D01*
X66809364Y-40739045D01*
X67009901Y-40979707D01*
X67242090Y-41258966D01*
X67497657Y-41566898D01*
X67707605Y-41820237D01*
X68832309Y-43178274D01*
X67626655Y-44751457D01*
X67359648Y-45099085D01*
X67111879Y-45420182D01*
X66890129Y-45706068D01*
X66701181Y-45948068D01*
X66551817Y-46137502D01*
X66448818Y-46265694D01*
X66398968Y-46323965D01*
X66395600Y-46326592D01*
X66373841Y-46280670D01*
X66319611Y-46147517D01*
X66235965Y-45935089D01*
X66125955Y-45651342D01*
X65992632Y-45304232D01*
X65839051Y-44901717D01*
X65668263Y-44451753D01*
X65558155Y-44160346D01*
X63906400Y-44160346D01*
X63858345Y-44172019D01*
X63725148Y-44182089D01*
X63523262Y-44189879D01*
X63269143Y-44194714D01*
X63038567Y-44196000D01*
X62755945Y-44193705D01*
X62513805Y-44187346D01*
X62328173Y-44177704D01*
X62215079Y-44165564D01*
X62187667Y-44154397D01*
X62208302Y-44096595D01*
X62257237Y-43956407D01*
X62329729Y-43747522D01*
X62421031Y-43483629D01*
X62526400Y-43178417D01*
X62605855Y-42947897D01*
X62718951Y-42621942D01*
X62822523Y-42327938D01*
X62911629Y-42079559D01*
X62981322Y-41890479D01*
X63026659Y-41774370D01*
X63041229Y-41743866D01*
X63063696Y-41781384D01*
X63113482Y-41899725D01*
X63185095Y-42083554D01*
X63273045Y-42317537D01*
X63371843Y-42586339D01*
X63475997Y-42874625D01*
X63580018Y-43167061D01*
X63678416Y-43448312D01*
X63765700Y-43703044D01*
X63836380Y-43915923D01*
X63884966Y-44071613D01*
X63905967Y-44154780D01*
X63906400Y-44160346D01*
X65558155Y-44160346D01*
X65483321Y-43962295D01*
X65287277Y-43441300D01*
X65227200Y-43281227D01*
X64084200Y-40233912D01*
X62034100Y-40233600D01*
X61934141Y-40500300D01*
X61898201Y-40595804D01*
X61829855Y-40777052D01*
X61732612Y-41034744D01*
X61609982Y-41359584D01*
X61465477Y-41742276D01*
X61302608Y-42173521D01*
X61124884Y-42644024D01*
X60935815Y-43144486D01*
X60762091Y-43604274D01*
X60569265Y-44115349D01*
X60387572Y-44598400D01*
X60220137Y-45045016D01*
X60070087Y-45446787D01*
X59940547Y-45795304D01*
X59834646Y-46082156D01*
X59755507Y-46298933D01*
X59706258Y-46437226D01*
X59690000Y-46488373D01*
X59738561Y-46504064D01*
X59875428Y-46515468D01*
X60087377Y-46522086D01*
X60361184Y-46523418D01*
X60560647Y-46521299D01*
X61431293Y-46507400D01*
X61589347Y-46050200D01*
X61747400Y-45593000D01*
X63051029Y-45579451D01*
X64354657Y-45565902D01*
X64676779Y-46532800D01*
X68253927Y-46532800D01*
X69064664Y-45364877D01*
X69275879Y-45062628D01*
X69468886Y-44790296D01*
X69636044Y-44558352D01*
X69769716Y-44377267D01*
X69862259Y-44257511D01*
X69906037Y-44209556D01*
X69907863Y-44209177D01*
X69955708Y-44252062D01*
X70045125Y-44349899D01*
X70123763Y-44442106D01*
X70307200Y-44662812D01*
X70307200Y-46532800D01*
X71932800Y-46532800D01*
X71932800Y-40233600D01*
X70307200Y-40233600D01*
X70307200Y-42791134D01*
G37*
X70307200Y-42791134D02*
X69354700Y-41514477D01*
X68402200Y-40237819D01*
X67390045Y-40235709D01*
X66377890Y-40233600D01*
X66480395Y-40347900D01*
X66536338Y-40413216D01*
X66648752Y-40546906D01*
X66809364Y-40739045D01*
X67009901Y-40979707D01*
X67242090Y-41258966D01*
X67497657Y-41566898D01*
X67707605Y-41820237D01*
X68832309Y-43178274D01*
X67626655Y-44751457D01*
X67359648Y-45099085D01*
X67111879Y-45420182D01*
X66890129Y-45706068D01*
X66701181Y-45948068D01*
X66551817Y-46137502D01*
X66448818Y-46265694D01*
X66398968Y-46323965D01*
X66395600Y-46326592D01*
X66373841Y-46280670D01*
X66319611Y-46147517D01*
X66235965Y-45935089D01*
X66125955Y-45651342D01*
X65992632Y-45304232D01*
X65839051Y-44901717D01*
X65668263Y-44451753D01*
X65558155Y-44160346D01*
X63906400Y-44160346D01*
X63858345Y-44172019D01*
X63725148Y-44182089D01*
X63523262Y-44189879D01*
X63269143Y-44194714D01*
X63038567Y-44196000D01*
X62755945Y-44193705D01*
X62513805Y-44187346D01*
X62328173Y-44177704D01*
X62215079Y-44165564D01*
X62187667Y-44154397D01*
X62208302Y-44096595D01*
X62257237Y-43956407D01*
X62329729Y-43747522D01*
X62421031Y-43483629D01*
X62526400Y-43178417D01*
X62605855Y-42947897D01*
X62718951Y-42621942D01*
X62822523Y-42327938D01*
X62911629Y-42079559D01*
X62981322Y-41890479D01*
X63026659Y-41774370D01*
X63041229Y-41743866D01*
X63063696Y-41781384D01*
X63113482Y-41899725D01*
X63185095Y-42083554D01*
X63273045Y-42317537D01*
X63371843Y-42586339D01*
X63475997Y-42874625D01*
X63580018Y-43167061D01*
X63678416Y-43448312D01*
X63765700Y-43703044D01*
X63836380Y-43915923D01*
X63884966Y-44071613D01*
X63905967Y-44154780D01*
X63906400Y-44160346D01*
X65558155Y-44160346D01*
X65483321Y-43962295D01*
X65287277Y-43441300D01*
X65227200Y-43281227D01*
X64084200Y-40233912D01*
X62034100Y-40233600D01*
X61934141Y-40500300D01*
X61898201Y-40595804D01*
X61829855Y-40777052D01*
X61732612Y-41034744D01*
X61609982Y-41359584D01*
X61465477Y-41742276D01*
X61302608Y-42173521D01*
X61124884Y-42644024D01*
X60935815Y-43144486D01*
X60762091Y-43604274D01*
X60569265Y-44115349D01*
X60387572Y-44598400D01*
X60220137Y-45045016D01*
X60070087Y-45446787D01*
X59940547Y-45795304D01*
X59834646Y-46082156D01*
X59755507Y-46298933D01*
X59706258Y-46437226D01*
X59690000Y-46488373D01*
X59738561Y-46504064D01*
X59875428Y-46515468D01*
X60087377Y-46522086D01*
X60361184Y-46523418D01*
X60560647Y-46521299D01*
X61431293Y-46507400D01*
X61589347Y-46050200D01*
X61747400Y-45593000D01*
X63051029Y-45579451D01*
X64354657Y-45565902D01*
X64676779Y-46532800D01*
X68253927Y-46532800D01*
X69064664Y-45364877D01*
X69275879Y-45062628D01*
X69468886Y-44790296D01*
X69636044Y-44558352D01*
X69769716Y-44377267D01*
X69862259Y-44257511D01*
X69906037Y-44209556D01*
X69907863Y-44209177D01*
X69955708Y-44252062D01*
X70045125Y-44349899D01*
X70123763Y-44442106D01*
X70307200Y-44662812D01*
X70307200Y-46532800D01*
X71932800Y-46532800D01*
X71932800Y-40233600D01*
X70307200Y-40233600D01*
X70307200Y-42791134D01*
G36*
X80933341Y-40500300D02*
G01*
X80897401Y-40595804D01*
X80829055Y-40777052D01*
X80731812Y-41034744D01*
X80609182Y-41359584D01*
X80464677Y-41742276D01*
X80301808Y-42173521D01*
X80124084Y-42644024D01*
X79935015Y-43144486D01*
X79761291Y-43604274D01*
X79568465Y-44115349D01*
X79386772Y-44598400D01*
X79219337Y-45045016D01*
X79069287Y-45446787D01*
X78939747Y-45795304D01*
X78833846Y-46082156D01*
X78754707Y-46298933D01*
X78705458Y-46437226D01*
X78689200Y-46488373D01*
X78737761Y-46504064D01*
X78874628Y-46515468D01*
X79086577Y-46522086D01*
X79360384Y-46523418D01*
X79559847Y-46521299D01*
X80430493Y-46507400D01*
X80588547Y-46050200D01*
X80746600Y-45593000D01*
X82050229Y-45579451D01*
X83353857Y-45565902D01*
X83675979Y-46532800D01*
X84565023Y-46532800D01*
X84851326Y-46530413D01*
X85097376Y-46523791D01*
X85287326Y-46513738D01*
X85405331Y-46501059D01*
X85437134Y-46488501D01*
X85416767Y-46434496D01*
X85363643Y-46293428D01*
X85280781Y-46073322D01*
X85171204Y-45782206D01*
X85037932Y-45428108D01*
X84883987Y-45019054D01*
X84712390Y-44563072D01*
X84560841Y-44160346D01*
X82905600Y-44160346D01*
X82857545Y-44172019D01*
X82724348Y-44182089D01*
X82522462Y-44189879D01*
X82268343Y-44194714D01*
X82037767Y-44196000D01*
X81755145Y-44193705D01*
X81513005Y-44187346D01*
X81327373Y-44177704D01*
X81214279Y-44165564D01*
X81186867Y-44154397D01*
X81207502Y-44096595D01*
X81256437Y-43956407D01*
X81328929Y-43747522D01*
X81420231Y-43483629D01*
X81525600Y-43178417D01*
X81605055Y-42947897D01*
X81718151Y-42621942D01*
X81821723Y-42327938D01*
X81910829Y-42079559D01*
X81980522Y-41890479D01*
X82025859Y-41774370D01*
X82040429Y-41743866D01*
X82062896Y-41781384D01*
X82112682Y-41899725D01*
X82184295Y-42083554D01*
X82272245Y-42317537D01*
X82371043Y-42586339D01*
X82475197Y-42874625D01*
X82579218Y-43167061D01*
X82677616Y-43448312D01*
X82764900Y-43703044D01*
X82835580Y-43915923D01*
X82884166Y-44071613D01*
X82905167Y-44154780D01*
X82905600Y-44160346D01*
X84560841Y-44160346D01*
X84526161Y-44068190D01*
X84328323Y-43542434D01*
X84251800Y-43339069D01*
X83083400Y-40233936D01*
X81033300Y-40233600D01*
X80933341Y-40500300D01*
G37*
X80933341Y-40500300D02*
X80897401Y-40595804D01*
X80829055Y-40777052D01*
X80731812Y-41034744D01*
X80609182Y-41359584D01*
X80464677Y-41742276D01*
X80301808Y-42173521D01*
X80124084Y-42644024D01*
X79935015Y-43144486D01*
X79761291Y-43604274D01*
X79568465Y-44115349D01*
X79386772Y-44598400D01*
X79219337Y-45045016D01*
X79069287Y-45446787D01*
X78939747Y-45795304D01*
X78833846Y-46082156D01*
X78754707Y-46298933D01*
X78705458Y-46437226D01*
X78689200Y-46488373D01*
X78737761Y-46504064D01*
X78874628Y-46515468D01*
X79086577Y-46522086D01*
X79360384Y-46523418D01*
X79559847Y-46521299D01*
X80430493Y-46507400D01*
X80588547Y-46050200D01*
X80746600Y-45593000D01*
X82050229Y-45579451D01*
X83353857Y-45565902D01*
X83675979Y-46532800D01*
X84565023Y-46532800D01*
X84851326Y-46530413D01*
X85097376Y-46523791D01*
X85287326Y-46513738D01*
X85405331Y-46501059D01*
X85437134Y-46488501D01*
X85416767Y-46434496D01*
X85363643Y-46293428D01*
X85280781Y-46073322D01*
X85171204Y-45782206D01*
X85037932Y-45428108D01*
X84883987Y-45019054D01*
X84712390Y-44563072D01*
X84560841Y-44160346D01*
X82905600Y-44160346D01*
X82857545Y-44172019D01*
X82724348Y-44182089D01*
X82522462Y-44189879D01*
X82268343Y-44194714D01*
X82037767Y-44196000D01*
X81755145Y-44193705D01*
X81513005Y-44187346D01*
X81327373Y-44177704D01*
X81214279Y-44165564D01*
X81186867Y-44154397D01*
X81207502Y-44096595D01*
X81256437Y-43956407D01*
X81328929Y-43747522D01*
X81420231Y-43483629D01*
X81525600Y-43178417D01*
X81605055Y-42947897D01*
X81718151Y-42621942D01*
X81821723Y-42327938D01*
X81910829Y-42079559D01*
X81980522Y-41890479D01*
X82025859Y-41774370D01*
X82040429Y-41743866D01*
X82062896Y-41781384D01*
X82112682Y-41899725D01*
X82184295Y-42083554D01*
X82272245Y-42317537D01*
X82371043Y-42586339D01*
X82475197Y-42874625D01*
X82579218Y-43167061D01*
X82677616Y-43448312D01*
X82764900Y-43703044D01*
X82835580Y-43915923D01*
X82884166Y-44071613D01*
X82905167Y-44154780D01*
X82905600Y-44160346D01*
X84560841Y-44160346D01*
X84526161Y-44068190D01*
X84328323Y-43542434D01*
X84251800Y-43339069D01*
X83083400Y-40233936D01*
X81033300Y-40233600D01*
X80933341Y-40500300D01*
G36*
X90170000Y-42570400D02*
G01*
X87528400Y-42570400D01*
X87528400Y-40233600D01*
X85902800Y-40233600D01*
X85902800Y-46532800D01*
X87528400Y-46532800D01*
X87528400Y-43991084D01*
X90144600Y-44018200D01*
X90158188Y-45275500D01*
X90171775Y-46532800D01*
X91795600Y-46532800D01*
X91795600Y-40233600D01*
X90170000Y-40233600D01*
X90170000Y-42570400D01*
G37*
X90170000Y-42570400D02*
X87528400Y-42570400D01*
X87528400Y-40233600D01*
X85902800Y-40233600D01*
X85902800Y-46532800D01*
X87528400Y-46532800D01*
X87528400Y-43991084D01*
X90144600Y-44018200D01*
X90158188Y-45275500D01*
X90171775Y-46532800D01*
X91795600Y-46532800D01*
X91795600Y-40233600D01*
X90170000Y-40233600D01*
X90170000Y-42570400D01*
G36*
X75051745Y-40161752D02*
G01*
X74503216Y-40261757D01*
X74004549Y-40446325D01*
X73560023Y-40713490D01*
X73173913Y-41061287D01*
X72900652Y-41410112D01*
X72799629Y-41569506D01*
X72726203Y-41700822D01*
X72695032Y-41777652D01*
X72694800Y-41780978D01*
X72738414Y-41823621D01*
X72858405Y-41898785D01*
X73038503Y-41997298D01*
X73262434Y-42109986D01*
X73367761Y-42160333D01*
X73630663Y-42282888D01*
X73816987Y-42365470D01*
X73941452Y-42412683D01*
X74018777Y-42429133D01*
X74063683Y-42419424D01*
X74090887Y-42388161D01*
X74091661Y-42386802D01*
X74152117Y-42302264D01*
X74257350Y-42174454D01*
X74360341Y-42057922D01*
X74649808Y-41809764D01*
X74982401Y-41653321D01*
X75360193Y-41587685D01*
X75438000Y-41585398D01*
X75822816Y-41616679D01*
X76153334Y-41723396D01*
X76452260Y-41914706D01*
X76610337Y-42058208D01*
X76867823Y-42378414D01*
X77041538Y-42729273D01*
X77135490Y-43098268D01*
X77153688Y-43472883D01*
X77100142Y-43840601D01*
X76978859Y-44188905D01*
X76793849Y-44505278D01*
X76549119Y-44777205D01*
X76248680Y-44992168D01*
X75896540Y-45137652D01*
X75606320Y-45193084D01*
X75234938Y-45184063D01*
X74878916Y-45085775D01*
X74558212Y-44907682D01*
X74292783Y-44659247D01*
X74194617Y-44523752D01*
X74112893Y-44397278D01*
X74056440Y-44315200D01*
X74041327Y-44297600D01*
X73994411Y-44318285D01*
X73871950Y-44375298D01*
X73690028Y-44461071D01*
X73464728Y-44568039D01*
X73337795Y-44628559D01*
X72644605Y-44959518D01*
X72834803Y-45268342D01*
X73135497Y-45664290D01*
X73511563Y-46009810D01*
X73943566Y-46291000D01*
X74412071Y-46493964D01*
X74638170Y-46558101D01*
X74911474Y-46601460D01*
X75247566Y-46623264D01*
X75609969Y-46623615D01*
X75962206Y-46602615D01*
X76267800Y-46560366D01*
X76301600Y-46553447D01*
X76801849Y-46396575D01*
X77281234Y-46149469D01*
X77719382Y-45823496D01*
X77878110Y-45673994D01*
X78233565Y-45258967D01*
X78497653Y-44817968D01*
X78675029Y-44339311D01*
X78770351Y-43811308D01*
X78790800Y-43383200D01*
X78751152Y-42804474D01*
X78629972Y-42282099D01*
X78423908Y-41807535D01*
X78129608Y-41372244D01*
X77901800Y-41118788D01*
X77478662Y-40752396D01*
X77019272Y-40475373D01*
X76514727Y-40283890D01*
X75956127Y-40174116D01*
X75645861Y-40148275D01*
X75051745Y-40161752D01*
G37*
X75051745Y-40161752D02*
X74503216Y-40261757D01*
X74004549Y-40446325D01*
X73560023Y-40713490D01*
X73173913Y-41061287D01*
X72900652Y-41410112D01*
X72799629Y-41569506D01*
X72726203Y-41700822D01*
X72695032Y-41777652D01*
X72694800Y-41780978D01*
X72738414Y-41823621D01*
X72858405Y-41898785D01*
X73038503Y-41997298D01*
X73262434Y-42109986D01*
X73367761Y-42160333D01*
X73630663Y-42282888D01*
X73816987Y-42365470D01*
X73941452Y-42412683D01*
X74018777Y-42429133D01*
X74063683Y-42419424D01*
X74090887Y-42388161D01*
X74091661Y-42386802D01*
X74152117Y-42302264D01*
X74257350Y-42174454D01*
X74360341Y-42057922D01*
X74649808Y-41809764D01*
X74982401Y-41653321D01*
X75360193Y-41587685D01*
X75438000Y-41585398D01*
X75822816Y-41616679D01*
X76153334Y-41723396D01*
X76452260Y-41914706D01*
X76610337Y-42058208D01*
X76867823Y-42378414D01*
X77041538Y-42729273D01*
X77135490Y-43098268D01*
X77153688Y-43472883D01*
X77100142Y-43840601D01*
X76978859Y-44188905D01*
X76793849Y-44505278D01*
X76549119Y-44777205D01*
X76248680Y-44992168D01*
X75896540Y-45137652D01*
X75606320Y-45193084D01*
X75234938Y-45184063D01*
X74878916Y-45085775D01*
X74558212Y-44907682D01*
X74292783Y-44659247D01*
X74194617Y-44523752D01*
X74112893Y-44397278D01*
X74056440Y-44315200D01*
X74041327Y-44297600D01*
X73994411Y-44318285D01*
X73871950Y-44375298D01*
X73690028Y-44461071D01*
X73464728Y-44568039D01*
X73337795Y-44628559D01*
X72644605Y-44959518D01*
X72834803Y-45268342D01*
X73135497Y-45664290D01*
X73511563Y-46009810D01*
X73943566Y-46291000D01*
X74412071Y-46493964D01*
X74638170Y-46558101D01*
X74911474Y-46601460D01*
X75247566Y-46623264D01*
X75609969Y-46623615D01*
X75962206Y-46602615D01*
X76267800Y-46560366D01*
X76301600Y-46553447D01*
X76801849Y-46396575D01*
X77281234Y-46149469D01*
X77719382Y-45823496D01*
X77878110Y-45673994D01*
X78233565Y-45258967D01*
X78497653Y-44817968D01*
X78675029Y-44339311D01*
X78770351Y-43811308D01*
X78790800Y-43383200D01*
X78751152Y-42804474D01*
X78629972Y-42282099D01*
X78423908Y-41807535D01*
X78129608Y-41372244D01*
X77901800Y-41118788D01*
X77478662Y-40752396D01*
X77019272Y-40475373D01*
X76514727Y-40283890D01*
X75956127Y-40174116D01*
X75645861Y-40148275D01*
X75051745Y-40161752D01*
G36*
X108290973Y-45918554D02*
G01*
X107825328Y-46051864D01*
X107400608Y-46269071D01*
X107028178Y-46563350D01*
X106719405Y-46927874D01*
X106547645Y-47220341D01*
X106445074Y-47465556D01*
X106363833Y-47732929D01*
X106310466Y-47992435D01*
X106291516Y-48214049D01*
X106304042Y-48338202D01*
X106299011Y-48381791D01*
X106261446Y-48446821D01*
X106184241Y-48540690D01*
X106060294Y-48670797D01*
X105882499Y-48844541D01*
X105643753Y-49069319D01*
X105336952Y-49352530D01*
X105279284Y-49405401D01*
X104999826Y-49661027D01*
X104739430Y-49898483D01*
X104509078Y-50107811D01*
X104319752Y-50279054D01*
X104182436Y-50402255D01*
X104108111Y-50467455D01*
X104105298Y-50469800D01*
X103982272Y-50571400D01*
X104370984Y-50849274D01*
X104678451Y-51091874D01*
X104984682Y-51374351D01*
X105269243Y-51674822D01*
X105511702Y-51971407D01*
X105691626Y-52242226D01*
X105719113Y-52292927D01*
X105805806Y-52454458D01*
X105875695Y-52573445D01*
X105915498Y-52627488D01*
X105918150Y-52628612D01*
X105959133Y-52594123D01*
X106062696Y-52496464D01*
X106219768Y-52344493D01*
X106421273Y-52147070D01*
X106658138Y-51913051D01*
X106921289Y-51651296D01*
X107010350Y-51562340D01*
X108077000Y-50495881D01*
X108407200Y-50534324D01*
X108909897Y-50552204D01*
X109374233Y-50481573D01*
X109810986Y-50322321D01*
X110218419Y-50075529D01*
X110569525Y-49755122D01*
X110852779Y-49375935D01*
X111056656Y-48952803D01*
X111154919Y-48592316D01*
X111174506Y-48427447D01*
X111181620Y-48237342D01*
X111177463Y-48048501D01*
X111163238Y-47887422D01*
X111140145Y-47780603D01*
X111116814Y-47752000D01*
X111073857Y-47785543D01*
X110969224Y-47879145D01*
X110814303Y-48022264D01*
X110620478Y-48204358D01*
X110399138Y-48414885D01*
X110350483Y-48461476D01*
X109610428Y-49170952D01*
X108869114Y-48466054D01*
X108630554Y-48238460D01*
X108406452Y-48023269D01*
X108211366Y-47834567D01*
X108059852Y-47686440D01*
X107966468Y-47592972D01*
X107962122Y-47588463D01*
X107796443Y-47415768D01*
X108565122Y-46684989D01*
X108835377Y-46427451D01*
X109034795Y-46231805D01*
X109165722Y-46089464D01*
X109230505Y-45991843D01*
X109231488Y-45930357D01*
X109171019Y-45896421D01*
X109051442Y-45881449D01*
X108875104Y-45876855D01*
X108786174Y-45875970D01*
X108290973Y-45918554D01*
G37*
X108290973Y-45918554D02*
X107825328Y-46051864D01*
X107400608Y-46269071D01*
X107028178Y-46563350D01*
X106719405Y-46927874D01*
X106547645Y-47220341D01*
X106445074Y-47465556D01*
X106363833Y-47732929D01*
X106310466Y-47992435D01*
X106291516Y-48214049D01*
X106304042Y-48338202D01*
X106299011Y-48381791D01*
X106261446Y-48446821D01*
X106184241Y-48540690D01*
X106060294Y-48670797D01*
X105882499Y-48844541D01*
X105643753Y-49069319D01*
X105336952Y-49352530D01*
X105279284Y-49405401D01*
X104999826Y-49661027D01*
X104739430Y-49898483D01*
X104509078Y-50107811D01*
X104319752Y-50279054D01*
X104182436Y-50402255D01*
X104108111Y-50467455D01*
X104105298Y-50469800D01*
X103982272Y-50571400D01*
X104370984Y-50849274D01*
X104678451Y-51091874D01*
X104984682Y-51374351D01*
X105269243Y-51674822D01*
X105511702Y-51971407D01*
X105691626Y-52242226D01*
X105719113Y-52292927D01*
X105805806Y-52454458D01*
X105875695Y-52573445D01*
X105915498Y-52627488D01*
X105918150Y-52628612D01*
X105959133Y-52594123D01*
X106062696Y-52496464D01*
X106219768Y-52344493D01*
X106421273Y-52147070D01*
X106658138Y-51913051D01*
X106921289Y-51651296D01*
X107010350Y-51562340D01*
X108077000Y-50495881D01*
X108407200Y-50534324D01*
X108909897Y-50552204D01*
X109374233Y-50481573D01*
X109810986Y-50322321D01*
X110218419Y-50075529D01*
X110569525Y-49755122D01*
X110852779Y-49375935D01*
X111056656Y-48952803D01*
X111154919Y-48592316D01*
X111174506Y-48427447D01*
X111181620Y-48237342D01*
X111177463Y-48048501D01*
X111163238Y-47887422D01*
X111140145Y-47780603D01*
X111116814Y-47752000D01*
X111073857Y-47785543D01*
X110969224Y-47879145D01*
X110814303Y-48022264D01*
X110620478Y-48204358D01*
X110399138Y-48414885D01*
X110350483Y-48461476D01*
X109610428Y-49170952D01*
X108869114Y-48466054D01*
X108630554Y-48238460D01*
X108406452Y-48023269D01*
X108211366Y-47834567D01*
X108059852Y-47686440D01*
X107966468Y-47592972D01*
X107962122Y-47588463D01*
X107796443Y-47415768D01*
X108565122Y-46684989D01*
X108835377Y-46427451D01*
X109034795Y-46231805D01*
X109165722Y-46089464D01*
X109230505Y-45991843D01*
X109231488Y-45930357D01*
X109171019Y-45896421D01*
X109051442Y-45881449D01*
X108875104Y-45876855D01*
X108786174Y-45875970D01*
X108290973Y-45918554D01*
G36*
X94127653Y-45982838D02*
G01*
X94006123Y-46006152D01*
X93994218Y-46033919D01*
X94028450Y-46096509D01*
X94114912Y-46200771D01*
X94259699Y-46353557D01*
X94468906Y-46561719D01*
X94695676Y-46781302D01*
X95469016Y-47524299D01*
X94593147Y-48362049D01*
X94345513Y-48597806D01*
X94121160Y-48809309D01*
X93930811Y-48986618D01*
X93785190Y-49119793D01*
X93695019Y-49198893D01*
X93671199Y-49216613D01*
X93621809Y-49188447D01*
X93511472Y-49100041D01*
X93352207Y-48961851D01*
X93156036Y-48784335D01*
X92934980Y-48577951D01*
X92912059Y-48556213D01*
X92688783Y-48345480D01*
X92489521Y-48159904D01*
X92326345Y-48010528D01*
X92211327Y-47908391D01*
X92156540Y-47864536D01*
X92155010Y-47863837D01*
X92125935Y-47900087D01*
X92100641Y-48009365D01*
X92091049Y-48092437D01*
X92102282Y-48553016D01*
X92205870Y-49001791D01*
X92393268Y-49423064D01*
X92655932Y-49801140D01*
X92985316Y-50120321D01*
X93311043Y-50333424D01*
X93658392Y-50495604D01*
X93983925Y-50593812D01*
X94326415Y-50636291D01*
X94714838Y-50631855D01*
X95224600Y-50602542D01*
X97358200Y-52729152D01*
X97530781Y-52395839D01*
X97717907Y-52098300D01*
X97978323Y-51775685D01*
X98293621Y-51446666D01*
X98645390Y-51129912D01*
X99015222Y-50844093D01*
X99155063Y-50748530D01*
X99186233Y-50725180D01*
X99201652Y-50698273D01*
X99194265Y-50660129D01*
X99157017Y-50603069D01*
X99082854Y-50519415D01*
X98964722Y-50401486D01*
X98795565Y-50241603D01*
X98568331Y-50032087D01*
X98275963Y-49765260D01*
X98128396Y-49630930D01*
X97805443Y-49336696D01*
X97549812Y-49102147D01*
X97353602Y-48918679D01*
X97208913Y-48777685D01*
X97107842Y-48670559D01*
X97042488Y-48588694D01*
X97004949Y-48523485D01*
X96987325Y-48466325D01*
X96981712Y-48408608D01*
X96981020Y-48381233D01*
X96924029Y-47882141D01*
X96776351Y-47420766D01*
X96544681Y-47005864D01*
X96235719Y-46646195D01*
X95856162Y-46350515D01*
X95412707Y-46127583D01*
X95202680Y-46055865D01*
X95029195Y-46019427D01*
X94804393Y-45992636D01*
X94558831Y-45976761D01*
X94323065Y-45973072D01*
X94127653Y-45982838D01*
G37*
X94127653Y-45982838D02*
X94006123Y-46006152D01*
X93994218Y-46033919D01*
X94028450Y-46096509D01*
X94114912Y-46200771D01*
X94259699Y-46353557D01*
X94468906Y-46561719D01*
X94695676Y-46781302D01*
X95469016Y-47524299D01*
X94593147Y-48362049D01*
X94345513Y-48597806D01*
X94121160Y-48809309D01*
X93930811Y-48986618D01*
X93785190Y-49119793D01*
X93695019Y-49198893D01*
X93671199Y-49216613D01*
X93621809Y-49188447D01*
X93511472Y-49100041D01*
X93352207Y-48961851D01*
X93156036Y-48784335D01*
X92934980Y-48577951D01*
X92912059Y-48556213D01*
X92688783Y-48345480D01*
X92489521Y-48159904D01*
X92326345Y-48010528D01*
X92211327Y-47908391D01*
X92156540Y-47864536D01*
X92155010Y-47863837D01*
X92125935Y-47900087D01*
X92100641Y-48009365D01*
X92091049Y-48092437D01*
X92102282Y-48553016D01*
X92205870Y-49001791D01*
X92393268Y-49423064D01*
X92655932Y-49801140D01*
X92985316Y-50120321D01*
X93311043Y-50333424D01*
X93658392Y-50495604D01*
X93983925Y-50593812D01*
X94326415Y-50636291D01*
X94714838Y-50631855D01*
X95224600Y-50602542D01*
X97358200Y-52729152D01*
X97530781Y-52395839D01*
X97717907Y-52098300D01*
X97978323Y-51775685D01*
X98293621Y-51446666D01*
X98645390Y-51129912D01*
X99015222Y-50844093D01*
X99155063Y-50748530D01*
X99186233Y-50725180D01*
X99201652Y-50698273D01*
X99194265Y-50660129D01*
X99157017Y-50603069D01*
X99082854Y-50519415D01*
X98964722Y-50401486D01*
X98795565Y-50241603D01*
X98568331Y-50032087D01*
X98275963Y-49765260D01*
X98128396Y-49630930D01*
X97805443Y-49336696D01*
X97549812Y-49102147D01*
X97353602Y-48918679D01*
X97208913Y-48777685D01*
X97107842Y-48670559D01*
X97042488Y-48588694D01*
X97004949Y-48523485D01*
X96987325Y-48466325D01*
X96981712Y-48408608D01*
X96981020Y-48381233D01*
X96924029Y-47882141D01*
X96776351Y-47420766D01*
X96544681Y-47005864D01*
X96235719Y-46646195D01*
X95856162Y-46350515D01*
X95412707Y-46127583D01*
X95202680Y-46055865D01*
X95029195Y-46019427D01*
X94804393Y-45992636D01*
X94558831Y-45976761D01*
X94323065Y-45973072D01*
X94127653Y-45982838D01*
G36*
X101337430Y-50459278D02*
G01*
X101003957Y-50493833D01*
X100361199Y-50647964D01*
X99751001Y-50894258D01*
X99182267Y-51226067D01*
X98663903Y-51636747D01*
X98204813Y-52119650D01*
X97813901Y-52668131D01*
X97618473Y-53020553D01*
X97422196Y-53460344D01*
X97283874Y-53890986D01*
X97195688Y-54344968D01*
X97149817Y-54854781D01*
X97144170Y-54991000D01*
X97136488Y-55314019D01*
X97139562Y-55566942D01*
X97155489Y-55780903D01*
X97186365Y-55987037D01*
X97223440Y-56168148D01*
X97423405Y-56846995D01*
X97711291Y-57475483D01*
X98086189Y-58051939D01*
X98512915Y-58540662D01*
X98873974Y-58902600D01*
X98878087Y-59410600D01*
X98883020Y-59655123D01*
X98896374Y-59825448D01*
X98923052Y-59948913D01*
X98967953Y-60052859D01*
X99004351Y-60115098D01*
X99183698Y-60313261D01*
X99418916Y-60442643D01*
X99684618Y-60495452D01*
X99955420Y-60463898D01*
X100041904Y-60433507D01*
X100218130Y-60320314D01*
X100391106Y-60143240D01*
X100529722Y-59936108D01*
X100562251Y-59867800D01*
X100626832Y-59715400D01*
X100726564Y-59947260D01*
X100883968Y-60210274D01*
X101094656Y-60388099D01*
X101361328Y-60482176D01*
X101686683Y-60493945D01*
X101741226Y-60488643D01*
X101970646Y-60416332D01*
X102156017Y-60268223D01*
X102274167Y-60065138D01*
X102293993Y-59991936D01*
X102334533Y-59882689D01*
X102415661Y-59845463D01*
X102457250Y-59844005D01*
X102556074Y-59868473D01*
X102647249Y-59952555D01*
X102729734Y-60074835D01*
X102919556Y-60297119D01*
X103161743Y-60438281D01*
X103440481Y-60492527D01*
X103739953Y-60454062D01*
X103753701Y-60450047D01*
X103949274Y-60346607D01*
X104122796Y-60175672D01*
X104241181Y-59970743D01*
X104249165Y-59948320D01*
X104282023Y-59799484D01*
X104305807Y-59597593D01*
X104314338Y-59424259D01*
X104318799Y-59082318D01*
X104648500Y-58806861D01*
X105071326Y-58394600D01*
X101956492Y-58394600D01*
X101850213Y-58102500D01*
X101784377Y-57948707D01*
X101720186Y-57842887D01*
X101678437Y-57810400D01*
X101611353Y-57845415D01*
X101503831Y-57936294D01*
X101403270Y-58037864D01*
X101193600Y-58265329D01*
X101194351Y-58025164D01*
X101209433Y-57817902D01*
X101248364Y-57577960D01*
X101303355Y-57339502D01*
X101366617Y-57136687D01*
X101425686Y-57010550D01*
X101529504Y-56920105D01*
X101621056Y-56896000D01*
X101728248Y-56939896D01*
X101812619Y-57073455D01*
X101875079Y-57299482D01*
X101916541Y-57620781D01*
X101931291Y-57851140D01*
X101956492Y-58394600D01*
X105071326Y-58394600D01*
X105109746Y-58357140D01*
X105509411Y-57834652D01*
X105838991Y-57253268D01*
X106089984Y-56626852D01*
X106182237Y-56305551D01*
X106256639Y-55898339D01*
X106272375Y-55710484D01*
X104879773Y-55710484D01*
X104833584Y-55935015D01*
X104784055Y-56068370D01*
X104707172Y-56236864D01*
X104615757Y-56416771D01*
X104522629Y-56584367D01*
X104440609Y-56715925D01*
X104382516Y-56787720D01*
X104369217Y-56794400D01*
X104339426Y-56753017D01*
X104282181Y-56647421D01*
X104243068Y-56568832D01*
X104113859Y-56350108D01*
X103951513Y-56177470D01*
X103734405Y-56033490D01*
X103440911Y-55900739D01*
X103389534Y-55880934D01*
X103052167Y-55733036D01*
X102809048Y-55578035D01*
X102652823Y-55408966D01*
X102577588Y-55222457D01*
X100881986Y-55222457D01*
X100813367Y-55421317D01*
X100716419Y-55558914D01*
X100568386Y-55681675D01*
X100352844Y-55800560D01*
X100060381Y-55923835D01*
X99778672Y-56041541D01*
X99574180Y-56153771D01*
X99425062Y-56277630D01*
X99309477Y-56430223D01*
X99232410Y-56572268D01*
X99093747Y-56855686D01*
X99000244Y-56736143D01*
X98930123Y-56630073D01*
X98836774Y-56467717D01*
X98742070Y-56287468D01*
X98612318Y-55933604D01*
X98571016Y-55581610D01*
X98614868Y-55246090D01*
X98740581Y-54941652D01*
X98944860Y-54682903D01*
X99137606Y-54533800D01*
X99288024Y-54449355D01*
X99423939Y-54403090D01*
X99588296Y-54384172D01*
X99741817Y-54381400D01*
X100087011Y-54411813D01*
X100381763Y-54497412D01*
X100617354Y-54629737D01*
X100785067Y-54800327D01*
X100876184Y-55000721D01*
X100881986Y-55222457D01*
X102577588Y-55222457D01*
X102576140Y-55218869D01*
X102565200Y-55100344D01*
X102611952Y-54856194D01*
X102749073Y-54651746D01*
X102971857Y-54490871D01*
X103275602Y-54377438D01*
X103497313Y-54333387D01*
X103838048Y-54329678D01*
X104148091Y-54413223D01*
X104417209Y-54571756D01*
X104635169Y-54793014D01*
X104791738Y-55064731D01*
X104876684Y-55374643D01*
X104879773Y-55710484D01*
X106272375Y-55710484D01*
X106295283Y-55437037D01*
X106298244Y-54956989D01*
X106265599Y-54493538D01*
X106197425Y-54082029D01*
X106177248Y-54000400D01*
X105952572Y-53339535D01*
X105646116Y-52728203D01*
X105264550Y-52173374D01*
X104814543Y-51682021D01*
X104302764Y-51261115D01*
X103735882Y-50917627D01*
X103120567Y-50658528D01*
X102920800Y-50596368D01*
X102578045Y-50522508D01*
X102174469Y-50473679D01*
X101748216Y-50451922D01*
X101337430Y-50459278D01*
G37*
X101337430Y-50459278D02*
X101003957Y-50493833D01*
X100361199Y-50647964D01*
X99751001Y-50894258D01*
X99182267Y-51226067D01*
X98663903Y-51636747D01*
X98204813Y-52119650D01*
X97813901Y-52668131D01*
X97618473Y-53020553D01*
X97422196Y-53460344D01*
X97283874Y-53890986D01*
X97195688Y-54344968D01*
X97149817Y-54854781D01*
X97144170Y-54991000D01*
X97136488Y-55314019D01*
X97139562Y-55566942D01*
X97155489Y-55780903D01*
X97186365Y-55987037D01*
X97223440Y-56168148D01*
X97423405Y-56846995D01*
X97711291Y-57475483D01*
X98086189Y-58051939D01*
X98512915Y-58540662D01*
X98873974Y-58902600D01*
X98878087Y-59410600D01*
X98883020Y-59655123D01*
X98896374Y-59825448D01*
X98923052Y-59948913D01*
X98967953Y-60052859D01*
X99004351Y-60115098D01*
X99183698Y-60313261D01*
X99418916Y-60442643D01*
X99684618Y-60495452D01*
X99955420Y-60463898D01*
X100041904Y-60433507D01*
X100218130Y-60320314D01*
X100391106Y-60143240D01*
X100529722Y-59936108D01*
X100562251Y-59867800D01*
X100626832Y-59715400D01*
X100726564Y-59947260D01*
X100883968Y-60210274D01*
X101094656Y-60388099D01*
X101361328Y-60482176D01*
X101686683Y-60493945D01*
X101741226Y-60488643D01*
X101970646Y-60416332D01*
X102156017Y-60268223D01*
X102274167Y-60065138D01*
X102293993Y-59991936D01*
X102334533Y-59882689D01*
X102415661Y-59845463D01*
X102457250Y-59844005D01*
X102556074Y-59868473D01*
X102647249Y-59952555D01*
X102729734Y-60074835D01*
X102919556Y-60297119D01*
X103161743Y-60438281D01*
X103440481Y-60492527D01*
X103739953Y-60454062D01*
X103753701Y-60450047D01*
X103949274Y-60346607D01*
X104122796Y-60175672D01*
X104241181Y-59970743D01*
X104249165Y-59948320D01*
X104282023Y-59799484D01*
X104305807Y-59597593D01*
X104314338Y-59424259D01*
X104318799Y-59082318D01*
X104648500Y-58806861D01*
X105071326Y-58394600D01*
X101956492Y-58394600D01*
X101850213Y-58102500D01*
X101784377Y-57948707D01*
X101720186Y-57842887D01*
X101678437Y-57810400D01*
X101611353Y-57845415D01*
X101503831Y-57936294D01*
X101403270Y-58037864D01*
X101193600Y-58265329D01*
X101194351Y-58025164D01*
X101209433Y-57817902D01*
X101248364Y-57577960D01*
X101303355Y-57339502D01*
X101366617Y-57136687D01*
X101425686Y-57010550D01*
X101529504Y-56920105D01*
X101621056Y-56896000D01*
X101728248Y-56939896D01*
X101812619Y-57073455D01*
X101875079Y-57299482D01*
X101916541Y-57620781D01*
X101931291Y-57851140D01*
X101956492Y-58394600D01*
X105071326Y-58394600D01*
X105109746Y-58357140D01*
X105509411Y-57834652D01*
X105838991Y-57253268D01*
X106089984Y-56626852D01*
X106182237Y-56305551D01*
X106256639Y-55898339D01*
X106272375Y-55710484D01*
X104879773Y-55710484D01*
X104833584Y-55935015D01*
X104784055Y-56068370D01*
X104707172Y-56236864D01*
X104615757Y-56416771D01*
X104522629Y-56584367D01*
X104440609Y-56715925D01*
X104382516Y-56787720D01*
X104369217Y-56794400D01*
X104339426Y-56753017D01*
X104282181Y-56647421D01*
X104243068Y-56568832D01*
X104113859Y-56350108D01*
X103951513Y-56177470D01*
X103734405Y-56033490D01*
X103440911Y-55900739D01*
X103389534Y-55880934D01*
X103052167Y-55733036D01*
X102809048Y-55578035D01*
X102652823Y-55408966D01*
X102577588Y-55222457D01*
X100881986Y-55222457D01*
X100813367Y-55421317D01*
X100716419Y-55558914D01*
X100568386Y-55681675D01*
X100352844Y-55800560D01*
X100060381Y-55923835D01*
X99778672Y-56041541D01*
X99574180Y-56153771D01*
X99425062Y-56277630D01*
X99309477Y-56430223D01*
X99232410Y-56572268D01*
X99093747Y-56855686D01*
X99000244Y-56736143D01*
X98930123Y-56630073D01*
X98836774Y-56467717D01*
X98742070Y-56287468D01*
X98612318Y-55933604D01*
X98571016Y-55581610D01*
X98614868Y-55246090D01*
X98740581Y-54941652D01*
X98944860Y-54682903D01*
X99137606Y-54533800D01*
X99288024Y-54449355D01*
X99423939Y-54403090D01*
X99588296Y-54384172D01*
X99741817Y-54381400D01*
X100087011Y-54411813D01*
X100381763Y-54497412D01*
X100617354Y-54629737D01*
X100785067Y-54800327D01*
X100876184Y-55000721D01*
X100881986Y-55222457D01*
X102577588Y-55222457D01*
X102576140Y-55218869D01*
X102565200Y-55100344D01*
X102611952Y-54856194D01*
X102749073Y-54651746D01*
X102971857Y-54490871D01*
X103275602Y-54377438D01*
X103497313Y-54333387D01*
X103838048Y-54329678D01*
X104148091Y-54413223D01*
X104417209Y-54571756D01*
X104635169Y-54793014D01*
X104791738Y-55064731D01*
X104876684Y-55374643D01*
X104879773Y-55710484D01*
X106272375Y-55710484D01*
X106295283Y-55437037D01*
X106298244Y-54956989D01*
X106265599Y-54493538D01*
X106197425Y-54082029D01*
X106177248Y-54000400D01*
X105952572Y-53339535D01*
X105646116Y-52728203D01*
X105264550Y-52173374D01*
X104814543Y-51682021D01*
X104302764Y-51261115D01*
X103735882Y-50917627D01*
X103120567Y-50658528D01*
X102920800Y-50596368D01*
X102578045Y-50522508D01*
X102174469Y-50473679D01*
X101748216Y-50451922D01*
X101337430Y-50459278D01*
G36*
X96767220Y-56997854D02*
G01*
X96665303Y-57077877D01*
X96512472Y-57211739D01*
X96319015Y-57390263D01*
X96095219Y-57604273D01*
X95954152Y-57742442D01*
X95123000Y-58563484D01*
X94634049Y-58535952D01*
X94114625Y-58545857D01*
X93650212Y-58638914D01*
X93234345Y-58817385D01*
X92860560Y-59083530D01*
X92736738Y-59199553D01*
X92420286Y-59583080D01*
X92188059Y-60010964D01*
X92045875Y-60469527D01*
X91999494Y-60933500D01*
X92000338Y-61116772D01*
X92008018Y-61248047D01*
X92031671Y-61324873D01*
X92080436Y-61344797D01*
X92163451Y-61305366D01*
X92289855Y-61204128D01*
X92468786Y-61038629D01*
X92709382Y-60806416D01*
X92799773Y-60718700D01*
X93025845Y-60500646D01*
X93227039Y-60308910D01*
X93392106Y-60154021D01*
X93509794Y-60046513D01*
X93568853Y-59996916D01*
X93573102Y-59994800D01*
X93614930Y-60029243D01*
X93718304Y-60126091D01*
X93873215Y-60275617D01*
X94069654Y-60468096D01*
X94297614Y-60693804D01*
X94487965Y-60883764D01*
X95375841Y-61772729D01*
X94596932Y-62552857D01*
X93818023Y-63332984D01*
X93981562Y-63365692D01*
X94233554Y-63392555D01*
X94533951Y-63389891D01*
X94834625Y-63359862D01*
X95041485Y-63318008D01*
X95477322Y-63149938D01*
X95876265Y-62896884D01*
X96224353Y-62572836D01*
X96507622Y-62191788D01*
X96712111Y-61767733D01*
X96769517Y-61586251D01*
X96801542Y-61417324D01*
X96824565Y-61202995D01*
X96831839Y-61054133D01*
X96837779Y-60731400D01*
X97602783Y-59959295D01*
X98367787Y-59187191D01*
X97963016Y-58765495D01*
X97780214Y-58568925D01*
X97606164Y-58371056D01*
X97464032Y-58198777D01*
X97394345Y-58105498D01*
X97304846Y-57961059D01*
X97189509Y-57755479D01*
X97064655Y-57520057D01*
X96946604Y-57286093D01*
X96851676Y-57084887D01*
X96807935Y-56980848D01*
X96767220Y-56997854D01*
G37*
X96767220Y-56997854D02*
X96665303Y-57077877D01*
X96512472Y-57211739D01*
X96319015Y-57390263D01*
X96095219Y-57604273D01*
X95954152Y-57742442D01*
X95123000Y-58563484D01*
X94634049Y-58535952D01*
X94114625Y-58545857D01*
X93650212Y-58638914D01*
X93234345Y-58817385D01*
X92860560Y-59083530D01*
X92736738Y-59199553D01*
X92420286Y-59583080D01*
X92188059Y-60010964D01*
X92045875Y-60469527D01*
X91999494Y-60933500D01*
X92000338Y-61116772D01*
X92008018Y-61248047D01*
X92031671Y-61324873D01*
X92080436Y-61344797D01*
X92163451Y-61305366D01*
X92289855Y-61204128D01*
X92468786Y-61038629D01*
X92709382Y-60806416D01*
X92799773Y-60718700D01*
X93025845Y-60500646D01*
X93227039Y-60308910D01*
X93392106Y-60154021D01*
X93509794Y-60046513D01*
X93568853Y-59996916D01*
X93573102Y-59994800D01*
X93614930Y-60029243D01*
X93718304Y-60126091D01*
X93873215Y-60275617D01*
X94069654Y-60468096D01*
X94297614Y-60693804D01*
X94487965Y-60883764D01*
X95375841Y-61772729D01*
X94596932Y-62552857D01*
X93818023Y-63332984D01*
X93981562Y-63365692D01*
X94233554Y-63392555D01*
X94533951Y-63389891D01*
X94834625Y-63359862D01*
X95041485Y-63318008D01*
X95477322Y-63149938D01*
X95876265Y-62896884D01*
X96224353Y-62572836D01*
X96507622Y-62191788D01*
X96712111Y-61767733D01*
X96769517Y-61586251D01*
X96801542Y-61417324D01*
X96824565Y-61202995D01*
X96831839Y-61054133D01*
X96837779Y-60731400D01*
X97602783Y-59959295D01*
X98367787Y-59187191D01*
X97963016Y-58765495D01*
X97780214Y-58568925D01*
X97606164Y-58371056D01*
X97464032Y-58198777D01*
X97394345Y-58105498D01*
X97304846Y-57961059D01*
X97189509Y-57755479D01*
X97064655Y-57520057D01*
X96946604Y-57286093D01*
X96851676Y-57084887D01*
X96807935Y-56980848D01*
X96767220Y-56997854D01*
G36*
X106314737Y-57159665D02*
G01*
X106202891Y-57388827D01*
X106073254Y-57636847D01*
X105942552Y-57872239D01*
X105827511Y-58063516D01*
X105777430Y-58137877D01*
X105660101Y-58287384D01*
X105496937Y-58478476D01*
X105314087Y-58681039D01*
X105211201Y-58789961D01*
X104830348Y-59185323D01*
X105596285Y-59958361D01*
X106362222Y-60731400D01*
X106368162Y-61054133D01*
X106380807Y-61266608D01*
X106407122Y-61473541D01*
X106430484Y-61586251D01*
X106600547Y-62028441D01*
X106855301Y-62430388D01*
X107181532Y-62778995D01*
X107566024Y-63061166D01*
X107995563Y-63263802D01*
X108180377Y-63320528D01*
X108433122Y-63365496D01*
X108732710Y-63388215D01*
X109030106Y-63386832D01*
X109265668Y-63361557D01*
X109299564Y-63347867D01*
X109305744Y-63318038D01*
X109276983Y-63263246D01*
X109206058Y-63174669D01*
X109085746Y-63043483D01*
X108908821Y-62860866D01*
X108668061Y-62617995D01*
X108605665Y-62555457D01*
X107823794Y-61772363D01*
X108724869Y-60871289D01*
X109625944Y-59970214D01*
X111142710Y-61484452D01*
X111178805Y-61292048D01*
X111199120Y-61044937D01*
X111185367Y-60745199D01*
X111142005Y-60434220D01*
X111073493Y-60153386D01*
X111048224Y-60079929D01*
X110841452Y-59668897D01*
X110552347Y-59299480D01*
X110196449Y-58986032D01*
X109789302Y-58742913D01*
X109464326Y-58616775D01*
X109270636Y-58564300D01*
X109094601Y-58535132D01*
X108898935Y-58525799D01*
X108646350Y-58532825D01*
X108592461Y-58535533D01*
X108077000Y-58562546D01*
X107245849Y-57741973D01*
X107009027Y-57511541D01*
X106796526Y-57311214D01*
X106618638Y-57150168D01*
X106485655Y-57037577D01*
X106407869Y-56982617D01*
X106392066Y-56980848D01*
X106314737Y-57159665D01*
G37*
X106314737Y-57159665D02*
X106202891Y-57388827D01*
X106073254Y-57636847D01*
X105942552Y-57872239D01*
X105827511Y-58063516D01*
X105777430Y-58137877D01*
X105660101Y-58287384D01*
X105496937Y-58478476D01*
X105314087Y-58681039D01*
X105211201Y-58789961D01*
X104830348Y-59185323D01*
X105596285Y-59958361D01*
X106362222Y-60731400D01*
X106368162Y-61054133D01*
X106380807Y-61266608D01*
X106407122Y-61473541D01*
X106430484Y-61586251D01*
X106600547Y-62028441D01*
X106855301Y-62430388D01*
X107181532Y-62778995D01*
X107566024Y-63061166D01*
X107995563Y-63263802D01*
X108180377Y-63320528D01*
X108433122Y-63365496D01*
X108732710Y-63388215D01*
X109030106Y-63386832D01*
X109265668Y-63361557D01*
X109299564Y-63347867D01*
X109305744Y-63318038D01*
X109276983Y-63263246D01*
X109206058Y-63174669D01*
X109085746Y-63043483D01*
X108908821Y-62860866D01*
X108668061Y-62617995D01*
X108605665Y-62555457D01*
X107823794Y-61772363D01*
X108724869Y-60871289D01*
X109625944Y-59970214D01*
X111142710Y-61484452D01*
X111178805Y-61292048D01*
X111199120Y-61044937D01*
X111185367Y-60745199D01*
X111142005Y-60434220D01*
X111073493Y-60153386D01*
X111048224Y-60079929D01*
X110841452Y-59668897D01*
X110552347Y-59299480D01*
X110196449Y-58986032D01*
X109789302Y-58742913D01*
X109464326Y-58616775D01*
X109270636Y-58564300D01*
X109094601Y-58535132D01*
X108898935Y-58525799D01*
X108646350Y-58532825D01*
X108592461Y-58535533D01*
X108077000Y-58562546D01*
X107245849Y-57741973D01*
X107009027Y-57511541D01*
X106796526Y-57311214D01*
X106618638Y-57150168D01*
X106485655Y-57037577D01*
X106407869Y-56982617D01*
X106392066Y-56980848D01*
X106314737Y-57159665D01*
%LPC*%
D11*
X70612000Y-40536000D03*
X66112000Y-40536000D03*
X70612000Y-34036000D03*
X66112000Y-34036000D03*
D12*
X72136000Y-62484000D03*
D13*
X72136000Y-58984000D03*
X87884000Y-56896000D03*
X87884000Y-54396000D03*
D14*
X92456000Y-67564000D03*
D15*
X94856000Y-67564000D03*
X94153056Y-69261056D03*
X92456000Y-69964000D03*
X90758944Y-69261056D03*
X90056000Y-67564000D03*
X90758944Y-65866944D03*
X92456000Y-65164000D03*
X94153056Y-65866944D03*
X94153056Y-32338944D03*
X92456000Y-31636000D03*
X90758944Y-32338944D03*
X90056000Y-34036000D03*
X90758944Y-35733056D03*
X92456000Y-36436000D03*
X94153056Y-35733056D03*
X94856000Y-34036000D03*
D14*
X92456000Y-34036000D03*
X44196000Y-34036000D03*
D15*
X46596000Y-34036000D03*
X45893056Y-35733056D03*
X44196000Y-36436000D03*
X42498944Y-35733056D03*
X41796000Y-34036000D03*
X42498944Y-32338944D03*
X44196000Y-31636000D03*
X45893056Y-32338944D03*
X45893056Y-65866944D03*
X44196000Y-65164000D03*
X42498944Y-65866944D03*
X41796000Y-67564000D03*
X42498944Y-69261056D03*
X44196000Y-69964000D03*
X45893056Y-69261056D03*
X46596000Y-67564000D03*
D14*
X44196000Y-67564000D03*
D16*
X109220000Y-48260000D03*
D17*
X109220000Y-50800000D03*
X109220000Y-53340000D03*
D16*
X74168000Y-39116000D03*
D17*
X74168000Y-36576000D03*
X76708000Y-39116000D03*
X76708000Y-36576000D03*
X79248000Y-39116000D03*
X79248000Y-36576000D03*
X65024000Y-60960000D03*
D16*
X65024000Y-63500000D03*
X87884000Y-63500000D03*
D17*
X87884000Y-60960000D03*
D13*
X84328000Y-44704000D03*
D18*
X84328000Y-52324000D03*
X67564000Y-52324000D03*
D13*
X67564000Y-44704000D03*
D12*
X72136000Y-52324000D03*
D18*
X79756000Y-44704000D03*
X74676000Y-52324000D03*
X77216000Y-44704000D03*
X77216000Y-52324000D03*
X74676000Y-44704000D03*
X79756000Y-52324000D03*
X72136000Y-44704000D03*
M02*
